<?xml version="1.0" encoding="iso-8859-1"?>
<!-- Generator: Adobe Illustrator 16.0.0, SVG Export Plug-In . SVG Version: 6.00 Build 0)  -->
<!DOCTYPE svg PUBLIC "-//W3C//DTD SVG 1.1//EN" "http://www.w3.org/Graphics/SVG/1.1/DTD/svg11.dtd">
<svg version="1.1" xmlns="http://www.w3.org/2000/svg" xmlns:xlink="http://www.w3.org/1999/xlink" x="0px" y="0px" width="128px"
	 height="128px" viewBox="0 0 128 128" style="enable-background:new 0 0 128 128;" xml:space="preserve">
<g id="nor_&#x526F;&#x672C;_1_" style="enable-background:new    ;">
	<g id="nor_&#x526F;&#x672C;">
		<g>
			<path style="fill-rule:evenodd;clip-rule:evenodd;fill:#1CCAF4;" d="M123,0H5C2.238,0,0,2.238,0,5v118c0,2.762,2.238,5,5,5h118
				c2.762,0,5-2.238,5-5V5C128,2.238,125.762,0,123,0z"/>
		</g>
	</g>
</g>
<g id="&#x77E9;&#x5F62;_3_&#x526F;&#x672C;_2_1_" style="enable-background:new    ;">
	<g id="&#x77E9;&#x5F62;_3_&#x526F;&#x672C;_2">
		<g>
			<path style="fill-rule:evenodd;clip-rule:evenodd;fill:#FFFFFF;" d="M47,76V38c0-1.657,1.343-3,3-3h18v10c0,1.657,1.343,3,3,3h10
				v11h1V47h-0.156l-13-13H50c-2.209,0-4,1.791-4,4v38c0,2.209,1.791,4,4,4h20v-1H50C48.343,79,47,77.657,47,76z M69,35.741
				L80.398,47H71c-1.104,0-2-0.896-2-2V35.741z M63,52v-2H53v2H63z M53,70h17v-2H53V70z M82,72v-7h-1v7h-7v1h7v7h1v-7h7v-1H82z
				 M53,58h20v-2H53V58z M53,64h20v-2H53V64z"/>
		</g>
	</g>
</g>
</svg>
