<?xml version="1.0" encoding="iso-8859-1"?>
<!-- Generator: Adobe Illustrator 16.0.0, SVG Export Plug-In . SVG Version: 6.00 Build 0)  -->
<!DOCTYPE svg PUBLIC "-//W3C//DTD SVG 1.1//EN" "http://www.w3.org/Graphics/SVG/1.1/DTD/svg11.dtd">
<svg version="1.1" xmlns="http://www.w3.org/2000/svg" xmlns:xlink="http://www.w3.org/1999/xlink" x="0px" y="0px" width="128px"
	 height="128px" viewBox="0 0 128 128" style="enable-background:new 0 0 128 128;" xml:space="preserve">
<g id="nor_1_" style="enable-background:new    ;">
	<g id="nor">
		<g>
			<path style="fill-rule:evenodd;clip-rule:evenodd;fill:#139AEA;" d="M123,0H5C2.238,0,0,2.238,0,5v118c0,2.762,2.238,5,5,5h118
				c2.762,0,5-2.238,5-5V5C128,2.238,125.762,0,123,0z"/>
		</g>
	</g>
</g>
<g id="&#x5706;&#x89D2;&#x77E9;&#x5F62;_4_1_" style="enable-background:new    ;">
	<g id="&#x5706;&#x89D2;&#x77E9;&#x5F62;_4">
		<g>
			<path style="fill-rule:evenodd;clip-rule:evenodd;fill:#FFFFFF;" d="M39,76V52h47v7h1V49c0-2.209-1.791-4-4-4H60v-2
				c0-1.657-1.343-3-3-3H41c-1.657,0-3,1.343-3,3v33c0,2.209,1.791,4,4,4h33v-1H42C40.343,79,39,77.657,39,76z M39,44
				c0-1.657,1.343-3,3-3h14c1.657,0,3,1.343,3,3v2h24c1.656,0,3,1.343,3,3v2H39V44z M48,61v2h10v-2H48z M48,69h20v-2H48V69z M87,72
				v-7h-1v7h-7v1h7v7h1v-7h7v-1H87z"/>
		</g>
	</g>
</g>
</svg>
