<?xml version="1.0" encoding="utf-8"?>
<!-- Generator: Adobe Illustrator 15.0.0, SVG Export Plug-In . SVG Version: 6.00 Build 0)  -->
<!DOCTYPE svg PUBLIC "-//W3C//DTD SVG 1.1//EN" "http://www.w3.org/Graphics/SVG/1.1/DTD/svg11.dtd">
<svg version="1.1" id="_x32__1_" xmlns="http://www.w3.org/2000/svg" xmlns:xlink="http://www.w3.org/1999/xlink" x="0px" y="0px"
	 width="26.997px" height="19.998px" viewBox="0 0 26.997 19.998" enable-background="new 0 0 26.997 19.998" xml:space="preserve">
<g id="_x32_">
	<g>
		<path fill-rule="evenodd" clip-rule="evenodd" fill="#8D96A1" d="M16.875,1.566l1.132,1.2c0.098,0.098,0.154,0.216,0.22,0.33
			c0.506,0.065,0.996,0.179,1.467,0.339c-0.119-0.544-0.385-1.063-0.808-1.486l-1.067-1.066c-1.178-1.178-3.089-1.178-4.268,0
			l-4.33,4.331C8.577,5.857,8.293,6.718,8.356,7.56c3.65-3.619,6.47-6.108,6.47-6.108C15.416,0.863,16.287,0.976,16.875,1.566z
			 M4.795,18.734c-0.589,0.59-1.793,0.248-2.383-0.341l-1.067-1.067c-0.589-0.589-0.801-1.796-0.211-2.385
			c0,0,2.735-2.971,4.909-5.266c-0.779-0.01-1.56,0.277-2.156,0.873l-3.326,3.325c-1.178,1.179-1.178,3.09,0,4.269l1.067,1.066
			c1.179,1.179,3.089,1.179,4.268,0l3.326-3.326c0.703-0.702,0.984-1.552,0.847-2.463C8.715,14.795,4.795,18.734,4.795,18.734z
			 M5.192,13.625c-0.626,0.684-0.575,1.073-0.28,1.368c0.542,0.389,1.122-0.314,1.122-0.314l3.72-3.744
			c-0.006-0.124-0.019-0.246-0.019-0.372c0-0.586,0.074-1.155,0.201-1.703L5.192,13.625z M17.29,5.037
			c-3.051,0-5.524,2.474-5.524,5.525c0,3.051,2.474,5.523,5.524,5.523s5.524-2.473,5.524-5.523
			C22.814,7.511,20.34,5.037,17.29,5.037z M17.29,15.081c-2.496,0-4.52-2.022-4.52-4.519c0-2.497,2.024-4.52,4.52-4.52
			s4.52,2.023,4.52,4.52C21.809,13.058,19.786,15.081,17.29,15.081z M26.407,19.241l-4.172-4.172
			c-0.232,0.242-0.483,0.466-0.75,0.67l4.211,4.212c0.196,0.196,0.515,0.196,0.711,0S26.603,19.437,26.407,19.241z"/>
	</g>
</g>
</svg>
