<?xml version="1.0" encoding="iso-8859-1"?>
<!-- Generator: Adobe Illustrator 16.0.0, SVG Export Plug-In . SVG Version: 6.00 Build 0)  -->
<!DOCTYPE svg PUBLIC "-//W3C//DTD SVG 1.1//EN" "http://www.w3.org/Graphics/SVG/1.1/DTD/svg11.dtd">
<svg version="1.1" id="&#x5706;&#x89D2;&#x77E9;&#x5F62;_7_1_"
	 xmlns="http://www.w3.org/2000/svg" xmlns:xlink="http://www.w3.org/1999/xlink" x="0px" y="0px" width="36px" height="36px"
	 viewBox="0 0 36 36" style="enable-background:new 0 0 36 36;" xml:space="preserve">
<g id="&#x5706;&#x89D2;&#x77E9;&#x5F62;_7">
	<g>
		<path style="fill-rule:evenodd;clip-rule:evenodd;fill:#767F8A;" d="M22.5,6c-0.169,0-0.333,0.019-0.5,0.025V7.37
			c0.167-0.007,0.331-0.025,0.5-0.025c6.16,0,11.154,4.994,11.154,11.155S28.66,29.655,22.5,29.655c-0.169,0-0.333-0.019-0.5-0.025
			v1.345C22.167,30.981,22.331,31,22.5,31C29.403,31,35,25.403,35,18.5S29.403,6,22.5,6z M29,18.5c0-3.59-2.91-6.5-6.5-6.5
			c-0.169,0-0.334,0.013-0.5,0.025v1.165c0.164-0.016,0.331-0.025,0.5-0.025c2.946,0,5.335,2.389,5.335,5.335
			s-2.389,5.335-5.335,5.335c-0.169,0-0.336-0.01-0.5-0.025v1.165C22.166,24.987,22.331,25,22.5,25C26.09,25,29,22.09,29,18.5z
			 M17.157,5.03C15.939,6.271,8.182,12,8.182,12H3c-1.104,0-2,0.896-2,2v10c0,1.104,0.896,2,2,2h5.188l8.614,5.59
			c0,0,2.208,2.437,3.199-0.59V6C19.348,3.57,17.642,4.579,17.157,5.03z M19,28.959c0.151,3.889-2.457,0.724-2.457,0.724L8.818,25H3
			c-0.552,0-1-0.447-1-1V14c0-0.553,0.448-1,1-1h5.912c0,0,6.655-4.708,8.057-6.139c-0.458,0.467,2-2.607,2.032,0.661V28.959z"/>
	</g>
</g>
</svg>
