<?xml version="1.0" encoding="iso-8859-1"?>
<!-- Generator: Adobe Illustrator 16.0.0, SVG Export Plug-In . SVG Version: 6.00 Build 0)  -->
<!DOCTYPE svg PUBLIC "-//W3C//DTD SVG 1.1//EN" "http://www.w3.org/Graphics/SVG/1.1/DTD/svg11.dtd">
<svg version="1.1" id="&#x5F62;&#x72B6;_264_1_" xmlns="http://www.w3.org/2000/svg" xmlns:xlink="http://www.w3.org/1999/xlink"
	 x="0px" y="0px" width="20px" height="20px" viewBox="0 0 20 20" style="enable-background:new 0 0 20 20;" xml:space="preserve">
<g id="&#x5F62;&#x72B6;_264">
	<g>
		<path style="fill-rule:evenodd;clip-rule:evenodd;fill:#898A90;" d="M9,16h2v-2H9V16z M5,16h2v-2H5V16z M13,16h2v-2h-2V16z M17,0
			H3C1.343,0,0,1.343,0,3v14c0,1.657,1.343,3,3,3h14c1.656,0,3-1.343,3-3V3C20,1.343,18.656,0,17,0z M19,17c0,1.104-0.896,2-2,2H3
			c-1.104,0-2-0.896-2-2V3c0-1.104,0.896-2,2-2h14c1.104,0,2,0.896,2,2V17z"/>
	</g>
</g>
</svg>
