<?xml version="1.0" encoding="iso-8859-1"?>
<!-- Generator: Adobe Illustrator 16.0.0, SVG Export Plug-In . SVG Version: 6.00 Build 0)  -->
<!DOCTYPE svg PUBLIC "-//W3C//DTD SVG 1.1//EN" "http://www.w3.org/Graphics/SVG/1.1/DTD/svg11.dtd">
<svg version="1.1" id="on_1_" xmlns="http://www.w3.org/2000/svg" xmlns:xlink="http://www.w3.org/1999/xlink" x="0px" y="0px"
	 width="24px" height="16px" viewBox="0 0 24 16" style="enable-background:new 0 0 24 16;" xml:space="preserve">
<g id="on">
	<g>
		<path style="fill-rule:evenodd;clip-rule:evenodd;fill:#EE4E46;" d="M4.989-0.007H3v0.979h1.989V-0.007z M22.287,1.997h-4.262
			l-1.988-2.005H7.941L5.952,1.997H1.69c-0.937,0-1.7,0.751-1.7,1.675v10.654c0,0.924,0.763,1.676,1.7,1.676h20.597
			c0.938,0,1.7-0.752,1.7-1.676V3.672C23.987,2.748,23.225,1.997,22.287,1.997z M22.996,14.139c0,0.47-0.389,0.853-0.865,0.853
			H1.877c-0.476,0-0.864-0.383-0.864-0.853V3.859c0-0.47,0.388-0.852,0.864-0.852h4.76l2.011-2.035l6.693-0.01l1.998,2.014h4.791
			c0.477,0,0.865,0.382,0.865,0.852V14.139z M12,4C9.239,4,7,6.238,7,9s2.239,5,5,5c2.762,0,5-2.238,5-5S14.762,4,12,4z M12,13
			c-2.209,0-4-1.791-4-4s1.791-4,4-4s4,1.791,4,4S14.209,13,12,13z M19,4c-0.553,0-1,0.447-1,1s0.447,1,1,1s1-0.447,1-1
			S19.553,4,19,4z"/>
	</g>
</g>
</svg>
