<?xml version="1.0" encoding="iso-8859-1"?>
<!-- Generator: Adobe Illustrator 16.0.0, SVG Export Plug-In . SVG Version: 6.00 Build 0)  -->
<!DOCTYPE svg PUBLIC "-//W3C//DTD SVG 1.1//EN" "http://www.w3.org/Graphics/SVG/1.1/DTD/svg11.dtd">
<svg version="1.1" id="&#x77E9;&#x5F62;_6_1_" xmlns="http://www.w3.org/2000/svg" xmlns:xlink="http://www.w3.org/1999/xlink"
	 x="0px" y="0px" width="191.976px" height="133.483px" viewBox="0 0 191.976 133.483"
	 style="enable-background:new 0 0 191.976 133.483;" xml:space="preserve">
<g id="&#x77E9;&#x5F62;_6">
	<g>
		<path style="fill-rule:evenodd;clip-rule:evenodd;fill:#1897F2;" d="M184.477,0H7.499C3.357,0,0,3.358,0,7.499v106.487
			c0,4.142,3.357,7.499,7.499,7.499H79.49v9.748H49.868c-0.621,0-1.125,0.504-1.125,1.125s0.503,1.125,1.125,1.125h92.238
			c0.622,0,1.125-0.504,1.125-1.125s-0.503-1.125-1.125-1.125h-29.621v-9.748h71.991c4.142,0,7.499-3.357,7.499-7.499V7.499
			C191.976,3.358,188.618,0,184.477,0z M189.726,113.236c0,3.313-2.686,5.999-5.999,5.999h-71.241H79.49H8.249
			c-3.313,0-6-2.686-6-5.999V8.249c0-3.313,2.686-6,6-6h175.478c3.313,0,5.999,2.687,5.999,6V113.236z"/>
	</g>
</g>
</svg>
