<?xml version="1.0" encoding="iso-8859-1"?>
<!-- Generator: Adobe Illustrator 16.0.0, SVG Export Plug-In . SVG Version: 6.00 Build 0)  -->
<!DOCTYPE svg PUBLIC "-//W3C//DTD SVG 1.1//EN" "http://www.w3.org/Graphics/SVG/1.1/DTD/svg11.dtd">
<svg version="1.1" xmlns="http://www.w3.org/2000/svg" xmlns:xlink="http://www.w3.org/1999/xlink" x="0px" y="0px"
	 width="97.987px" height="17.998px" viewBox="0 0 97.987 17.998" style="enable-background:new 0 0 97.987 17.998;"
	 xml:space="preserve">
<g id="&#x5F62;&#x72B6;_236_1_" style="opacity:0.149;enable-background:new    ;">
	<g id="&#x5F62;&#x72B6;_236">
		<g>
			<path style="fill-rule:evenodd;clip-rule:evenodd;fill:#E5E5FF;" d="M95.988,0H2C0.895,0,0,0.896,0,2v13.998c0,1.104,0.895,2,2,2
				h93.989c1.104,0,1.999-0.896,1.999-2V2C97.987,0.896,97.092,0,95.988,0z"/>
		</g>
	</g>
</g>
<g id="&#x5F62;&#x72B6;_236_&#x526F;&#x672C;_1_" style="opacity:0.302;enable-background:new    ;">
	<g id="&#x5F62;&#x72B6;_236_&#x526F;&#x672C;">
		<g>
			<path style="fill-rule:evenodd;clip-rule:evenodd;fill:#E5E5FF;" d="M95.988,0H79.99v17.998h15.998c1.104,0,1.999-0.896,1.999-2
				V2C97.987,0.896,97.092,0,95.988,0z"/>
		</g>
	</g>
</g>
<g id="&#x5F62;&#x72B6;_237_1_" style="enable-background:new    ;">
	<g id="&#x5F62;&#x72B6;_237">
		<g>
			<polygon style="fill-rule:evenodd;clip-rule:evenodd;fill:#FFFFFF;" points="92.768,7.978 89.484,11.92 86.241,7.978 
				85.177,7.978 89.524,13.083 93.863,7.978 			"/>
		</g>
	</g>
</g>
</svg>
