<?xml version="1.0" encoding="iso-8859-1"?>
<!-- Generator: Adobe Illustrator 16.0.0, SVG Export Plug-In . SVG Version: 6.00 Build 0)  -->
<!DOCTYPE svg PUBLIC "-//W3C//DTD SVG 1.1//EN" "http://www.w3.org/Graphics/SVG/1.1/DTD/svg11.dtd">
<svg version="1.1" id="&#x5F62;&#x72B6;_277_1_" xmlns="http://www.w3.org/2000/svg" xmlns:xlink="http://www.w3.org/1999/xlink"
	 x="0px" y="0px" width="11.999px" height="11.998px" viewBox="0 0 11.999 11.998"
	 style="enable-background:new 0 0 11.999 11.998;" xml:space="preserve">
<g id="&#x5F62;&#x72B6;_277">
	<g>
		<path style="fill-rule:evenodd;clip-rule:evenodd;fill:#FFFFFF;" d="M12.158,3.37l-0.53-0.53l-0.004,0.004L9.265,0.485l-0.53,0.53
			L10.719,3H0v0.75h10.719L8.734,5.734l0.53,0.53l2.359-2.359l0.004,0.004l0.53-0.53l-0.004-0.004L12.158,3.37z M3.265,6.264
			l-0.53-0.53l-2.36,2.359L0.371,8.09l-0.53,0.529l0.004,0.005l-0.004,0.005l0.53,0.529l0.004-0.004l2.36,2.359l0.53-0.53
			L1.28,8.999h10.719v-0.75H1.28L3.265,6.264z"/>
	</g>
</g>
</svg>
