<?xml version="1.0" encoding="utf-8"?>
<!-- Generator: Adobe Illustrator 16.0.0, SVG Export Plug-In . SVG Version: 6.00 Build 0)  -->
<!DOCTYPE svg PUBLIC "-//W3C//DTD SVG 1.1//EN" "http://www.w3.org/Graphics/SVG/1.1/DTD/svg11.dtd">
<svg version="1.1" id="cycle_1_" xmlns="http://www.w3.org/2000/svg" xmlns:xlink="http://www.w3.org/1999/xlink" x="0px" y="0px"
	 width="22px" height="16px" viewBox="0 0 22 16" enable-background="new 0 0 22 16" xml:space="preserve">
<g id="_cycle__nor" opacity="0.6314">
	<g>
		<path fill-rule="evenodd" clip-rule="evenodd" fill="#FFFFFF" d="M21.028,10.998v1.185c0,1.326-1.658,2.86-2.748,2.86H3.97
			c-1.179,0.06-3.048-1.267-3.048-2.683V5.707c0.03-1.268,1.395-2.713,3.018-2.713h11.051l-0.008,1.993l3.949-1.97
			c-0.022-0.01-0.045-0.022-0.065-0.023h0.112l-0.047,0.023c0.02,0.009,0.038,0.015,0.057,0.021V2.455l0.003-0.002l-0.003-0.001
			V2.085c-0.245-0.062,0.254-0.101-0.003-0.11l-3.982-2.049l-0.009,2.041H3.919c-2.038,0-3.921,1.806-3.921,3.844v6.379
			c0,2.038,1.883,3.776,3.921,3.776h14.209c2.038,0,3.806-1.738,3.806-3.776v-1.191H21.028z"/>
	</g>
</g>
</svg>
