<?xml version="1.0" encoding="iso-8859-1"?>
<!-- Generator: Adobe Illustrator 16.0.0, SVG Export Plug-In . SVG Version: 6.00 Build 0)  -->
<!DOCTYPE svg PUBLIC "-//W3C//DTD SVG 1.1//EN" "http://www.w3.org/Graphics/SVG/1.1/DTD/svg11.dtd">
<svg version="1.1" xmlns="http://www.w3.org/2000/svg" xmlns:xlink="http://www.w3.org/1999/xlink" x="0px" y="0px" width="26px"
	 height="13px" viewBox="0 0 26 13" style="enable-background:new 0 0 26 13;" xml:space="preserve">
<g id="&#x77E9;&#x5F62;_2_1_" style="enable-background:new    ;">
	<g id="&#x77E9;&#x5F62;_2">
		<g>
			<path style="fill-rule:evenodd;clip-rule:evenodd;fill:#00735C;" d="M0,0v13h26V0H0z M25,12H1V1h24V12z"/>
		</g>
	</g>
</g>
<g id="&#x77E9;&#x5F62;_1_&#x526F;&#x672C;_1_" style="enable-background:new    ;">
	<g id="&#x77E9;&#x5F62;_1_&#x526F;&#x672C;">
		<g>
			<path style="fill-rule:evenodd;clip-rule:evenodd;fill:#747D88;" d="M9,3H8v6v1h1h3V9H9V3z M6,9h1V4H6V9z M14,4V3h-1v7h1V6h1V4
				H14z M3,4h3V3H3H2v1v5v1h1h3V9H3V4z M19,10h1V8h-1V10z M22,3h-1v2h1V3z M23,8v2h1V8H23z M15,6v1h1V6H15z M17,7h-1v2h1v1h1V3h-1V7
				z M23,5h-1v2h-1V5h-1v2v1h1h1h1V7V5z"/>
		</g>
	</g>
</g>
</svg>
