<?xml version="1.0" encoding="iso-8859-1"?>
<!-- Generator: Adobe Illustrator 16.0.0, SVG Export Plug-In . SVG Version: 6.00 Build 0)  -->
<!DOCTYPE svg PUBLIC "-//W3C//DTD SVG 1.1//EN" "http://www.w3.org/Graphics/SVG/1.1/DTD/svg11.dtd">
<svg version="1.1" xmlns="http://www.w3.org/2000/svg" xmlns:xlink="http://www.w3.org/1999/xlink" x="0px" y="0px" width="26px"
	 height="13px" viewBox="0 0 26 13" style="enable-background:new 0 0 26 13;" xml:space="preserve">
<g id="&#x77E9;&#x5F62;_2_&#x526F;&#x672C;_1_" style="enable-background:new    ;">
	<g id="&#x77E9;&#x5F62;_2_&#x526F;&#x672C;">
		<g>
			<rect style="fill-rule:evenodd;clip-rule:evenodd;fill:#22E0BA;" width="26" height="13"/>
		</g>
	</g>
</g>
<g id="&#x77E9;&#x5F62;_1_1_" style="enable-background:new    ;">
	<g id="&#x77E9;&#x5F62;_1">
		<g>
			<path style="fill-rule:evenodd;clip-rule:evenodd;fill:#004359;" d="M9,3H8v6v1h1h3V9H9V3z M3,4h3V3H3H2v1v5v1h1h3V9H3V4z M6,9h1
				V4H6V9z M14,4V3h-1v7h1V6h1V4H14z M23,5h-1v2h-1V5h-1v2v1h1h1h1V7V5z M15,6v1h1V6H15z M23,8v2h1V8H23z M22,3h-1v2h1V3z M19,10h1
				V8h-1V10z M17,7h-1v2h1v1h1V3h-1V7z"/>
		</g>
	</g>
</g>
</svg>
