<?xml version="1.0" encoding="utf-8"?>
<!-- Generator: Adobe Illustrator 16.0.0, SVG Export Plug-In . SVG Version: 6.00 Build 0)  -->
<!DOCTYPE svg PUBLIC "-//W3C//DTD SVG 1.1//EN" "http://www.w3.org/Graphics/SVG/1.1/DTD/svg11.dtd">
<svg version="1.1" id="dis_1_" xmlns="http://www.w3.org/2000/svg" xmlns:xlink="http://www.w3.org/1999/xlink" x="0px" y="0px"
	 width="24px" height="16px" viewBox="0 0 24 16" enable-background="new 0 0 24 16" xml:space="preserve">
<g display="none">
	<path display="inline" fill="#3C3D40" d="M12.012,4.003c-2.761,0-5,2.238-5,4.999c0,2.762,2.239,5,5,5s5-2.238,5-5
		C17.012,6.241,14.773,4.003,12.012,4.003z M12.012,13.002c-2.209,0-4-1.791-4-4c0-2.208,1.791-3.999,4-3.999
		c2.208,0,4,1.791,4,3.999C16.012,11.211,14.221,13.002,12.012,13.002z M5.001-0.004H3.012v0.979h1.989V-0.004z M19.012,4.003
		c-0.553,0-1,0.447-1,1c0,0.553,0.447,1,1,1s1-0.447,1-1C20.012,4.45,19.564,4.003,19.012,4.003z M22.299,2h-4.262l-1.988-2.005
		H7.953L5.964,2H1.702c-0.937,0-1.7,0.751-1.7,1.675v10.653c0,0.924,0.763,1.676,1.7,1.676h20.597c0.938,0,1.699-0.752,1.699-1.676
		V3.675C23.998,2.751,23.236,2,22.299,2z M23.008,14.141c0,0.471-0.389,0.854-0.865,0.854H1.889c-0.476,0-0.864-0.384-0.864-0.854
		V3.862c0-0.47,0.388-0.852,0.864-0.852h4.76L8.66,0.975l6.693-0.01l1.998,2.014h4.791c0.478,0,0.864,0.382,0.864,0.852
		L23.008,14.141L23.008,14.141z"/>
</g>
<path fill="#3C3D40" d="M4.625,0.333"/>
<circle fill="none" stroke="#ACB0B5" stroke-miterlimit="10" cx="6.914" cy="12.518" r="3.016"/>
<circle fill="none" stroke="#ACB0B5" stroke-miterlimit="10" cx="17.375" cy="12.596" r="2.983"/>
<line fill="none" stroke="#ACB0B5" stroke-miterlimit="10" x1="7.752" y1="9.413" x2="20.357" y2="0.625"/>
<line fill="#ACB0B5" stroke="#ACB0B5" stroke-miterlimit="10" x1="3.125" y1="0.625" x2="16.979" y2="9.479"/>
</svg>
