<?xml version="1.0" encoding="utf-8"?>
<!-- Generator: Adobe Illustrator 16.0.0, SVG Export Plug-In . SVG Version: 6.00 Build 0)  -->
<!DOCTYPE svg PUBLIC "-//W3C//DTD SVG 1.1//EN" "http://www.w3.org/Graphics/SVG/1.1/DTD/svg11.dtd">
<svg version="1.1" id="Folder_1_" xmlns="http://www.w3.org/2000/svg" xmlns:xlink="http://www.w3.org/1999/xlink" x="0px" y="0px"
	 width="34px" height="27px" viewBox="0 0 34 27" enable-background="new 0 0 34 27" xml:space="preserve">
<g id="Folder">
	<g>
		<path fill-rule="evenodd" clip-rule="evenodd" fill="#7F7F7F" d="M27.685,6.127h-12.76L12.089,4H6.417C5.517,4,5,4.561,5,5.417
			v16.304c0,0.835,0.605,1.418,1.417,1.418h21.267c0.944,0,1.417-0.671,1.417-1.418V7.544C29.102,6.665,28.563,6.127,27.685,6.127z
			 M28.393,21.744c0,0.251-0.437,0.687-0.687,0.687H6.417c-0.258,0-0.709-0.384-0.709-0.643c0-2.495,0-11.408,0-11.408h22.684
			C28.393,10.38,28.393,19.189,28.393,21.744z M28.393,9.671H5.708c0,0,0-2.9,0-4.253c0-0.31,0.444-0.709,0.731-0.709
			c1.38,0,4.231,0,4.231,0h0.709l2.835,2.127c0,0,10.6,0,13.47,0c0.236,0,0.708,0.488,0.708,0.709
			C28.393,8.382,28.393,9.671,28.393,9.671z"/>
	</g>
</g>
</svg>
