<?xml version="1.0" encoding="iso-8859-1"?>
<!-- Generator: Adobe Illustrator 16.0.0, SVG Export Plug-In . SVG Version: 6.00 Build 0)  -->
<!DOCTYPE svg PUBLIC "-//W3C//DTD SVG 1.1//EN" "http://www.w3.org/Graphics/SVG/1.1/DTD/svg11.dtd">
<svg version="1.1" id="&#x5F62;&#x72B6;_208_&#x526F;&#x672C;_1_"
	 xmlns="http://www.w3.org/2000/svg" xmlns:xlink="http://www.w3.org/1999/xlink" x="0px" y="0px" width="33px" height="33px"
	 viewBox="0 0 33 33" style="enable-background:new 0 0 33 33;" xml:space="preserve">
<g id="&#x5F62;&#x72B6;_208_&#x526F;&#x672C;">
	<g>
		<path style="fill-rule:evenodd;clip-rule:evenodd;fill:#FBFBFC;" d="M24,21v-2h-1v2h-2v1h2v2h1v-2h2v-1H24z M10,22v-6h13v1h1v-2
			c0-1.104-0.896-2-2-2h-6c0-1.104-0.896-2-2-2h-3c-1.104,0-2,0.896-2,2v9c0,1.104,0.896,2,2,2h8v-1h-8C10.448,23,10,22.552,10,22z
			 M10,13c0-0.553,0.448-1,1-1h3c0.552,0,1,0.447,1,1v1h7c0.553,0,1,0.447,1,1H10V13z"/>
	</g>
</g>
</svg>
