<?xml version="1.0" encoding="iso-8859-1"?>
<!-- Generator: Adobe Illustrator 16.0.0, SVG Export Plug-In . SVG Version: 6.00 Build 0)  -->
<!DOCTYPE svg PUBLIC "-//W3C//DTD SVG 1.1//EN" "http://www.w3.org/Graphics/SVG/1.1/DTD/svg11.dtd">
<svg version="1.1" xmlns="http://www.w3.org/2000/svg" xmlns:xlink="http://www.w3.org/1999/xlink" x="0px" y="0px" width="8.999px"
	 height="8.999px" viewBox="0 0 8.999 8.999" style="enable-background:new 0 0 8.999 8.999;" xml:space="preserve">
<g id="_x31_x_Background_1_" style="enable-background:new    ;">
	<g id="_x31_x_Background">
		<g>
			<circle style="fill-rule:evenodd;clip-rule:evenodd;fill:#FC5754;" cx="4.5" cy="4.5" r="4.5"/>
		</g>
	</g>
</g>
<g id="Hover_1_" style="enable-background:new    ;">
	<g id="Hover">
		<g>
			<polygon style="fill-rule:evenodd;clip-rule:evenodd;fill:#97040C;" points="6.35,3.399 6.749,3.399 6.749,2.25 5.6,2.25 
				5.6,2.649 5.057,3.192 3.942,3.192 3.367,2.617 3.367,2.25 2.25,2.25 2.25,3.367 2.617,3.367 3.218,3.968 3.218,5.032 
				2.605,5.643 2.25,5.643 2.25,6.749 3.355,6.749 3.355,6.394 3.919,5.831 5.08,5.831 5.656,6.407 5.656,6.749 6.749,6.749 
				6.749,5.657 6.406,5.657 5.828,5.079 5.828,3.921 			"/>
		</g>
	</g>
</g>
</svg>
