<?xml version="1.0" encoding="iso-8859-1"?>
<!-- Generator: Adobe Illustrator 16.0.0, SVG Export Plug-In . SVG Version: 6.00 Build 0)  -->
<!DOCTYPE svg PUBLIC "-//W3C//DTD SVG 1.1//EN" "http://www.w3.org/Graphics/SVG/1.1/DTD/svg11.dtd">
<svg version="1.1" id="Backward_&#x526F;&#x672C;_2_1_"
	 xmlns="http://www.w3.org/2000/svg" xmlns:xlink="http://www.w3.org/1999/xlink" x="0px" y="0px" width="27px" height="19px"
	 viewBox="0 0 27 19" style="enable-background:new 0 0 27 19;" xml:space="preserve">
<g id="Backward_&#x526F;&#x672C;_2">
	<g>
		<path style="fill-rule:evenodd;clip-rule:evenodd;fill:#ACB0B5;" d="M22.547,1.291l-8.158,5.937
			c-0.143,0.083-0.267,0.177-0.375,0.279V2.551c-0.008-1.289-0.836-1.53-1.708-1.53c-0.315,0-0.84,0.09-1.149,0.269L3.664,7.228
			C3.111,7.547,2.794,8.023,2.795,8.534c0,0.489,0.296,0.94,0.797,1.229l7.61,5.958c0.293,0.169,0.612,0.258,0.923,0.258
			c0.403,0,1.02-0.035,1.291-0.305c0.281-0.279,0.598-0.788,0.598-1.226V9.507c0.102,0.094,0.217,0.179,0.346,0.253l8.01,5.931
			c0.297,0.171,0.596,0.289,0.889,0.289v-0.031c0.396,0,0.954-0.037,1.201-0.333c0.23-0.273,0.555-0.77,0.555-1.197V2.551
			C25.043,1.081,23.785,0.669,22.547,1.291z M13.004,14.418c0,0.088-0.218,0.21-0.294,0.285c-0.065,0.065-0.36,0.079-0.426,0.079
			c-0.106,0-0.221-0.035-0.322-0.094L4.203,8.762C4.035,8.665,3.987,8.572,3.987,8.532c0-0.05,0.103-0.174,0.329-0.305l7.699-5.938
			c0.115-0.066,0.337-0.102,0.447-0.102c0.154,0,0.542,0.063,0.542,0.363V14.418z M23.973,14.418c0,0.144-0.232,0.265-0.281,0.323
			c-0.017,0.02-0.241,0.041-0.305,0.041c-0.049,0-0.149-0.014-0.283-0.09l-8.129-5.931c-0.184-0.106-0.238-0.211-0.238-0.256
			c0-0.047,0.096-0.157,0.307-0.28l8.132-5.905c0.153-0.089,0.36-0.102,0.409-0.102c0.153,0,0.389,0.197,0.389,0.363V14.418z"/>
	</g>
</g>
</svg>
