<?xml version="1.0" encoding="iso-8859-1"?>
<!-- Generator: Adobe Illustrator 16.0.0, SVG Export Plug-In . SVG Version: 6.00 Build 0)  -->
<!DOCTYPE svg PUBLIC "-//W3C//DTD SVG 1.1//EN" "http://www.w3.org/Graphics/SVG/1.1/DTD/svg11.dtd">
<svg version="1.1" xmlns="http://www.w3.org/2000/svg" xmlns:xlink="http://www.w3.org/1999/xlink" x="0px" y="0px" width="44px"
	 height="44px" viewBox="0 0 44 44" style="enable-background:new 0 0 44 44;" xml:space="preserve">
<g id="&#x5F62;&#x72B6;_271_1_" style="opacity:0.149;enable-background:new    ;">
	<g id="&#x5F62;&#x72B6;_271">
		<g>
			<rect style="fill-rule:evenodd;clip-rule:evenodd;fill:#E5E5FF;" width="44" height="44"/>
		</g>
	</g>
</g>
<g id="Shape_525_1_" style="opacity:0.302;enable-background:new    ;">
	<g id="Shape_525">
		<g>
			<path style="fill-rule:evenodd;clip-rule:evenodd;fill:#FFFFFF;" d="M20.992,30h3v-1h-3V30z M24.992,30h3v-1h-3V30z M30.992,29
				h-2v1h2h1v-3h-1V29z M30.992,26h1v-4h-1V26z M28.992,18v1h2v2h1v-2v-1H28.992z"/>
		</g>
	</g>
</g>
<g id="&#x5F62;&#x72B6;_1_1_" style="enable-background:new    ;">
	<g id="&#x5F62;&#x72B6;_1">
		<g>
			<path style="fill-rule:evenodd;clip-rule:evenodd;fill:#FFFFFF;" d="M23.859,13.27l-13.594,6.339l4.649,9.97l13.595-6.339
				L23.859,13.27z M11.594,20.093l11.782-5.494l3.804,8.156l-11.782,5.494L11.594,20.093z"/>
		</g>
	</g>
</g>
<g id="&#x5F62;&#x72B6;_4_1_" style="enable-background:new    ;">
	<g id="&#x5F62;&#x72B6;_4">
		<g>
			<path style="fill-rule:evenodd;clip-rule:evenodd;fill:#FFFFFF;" d="M23.385,19.704l-0.974,4.319l-1.638,0.653l-4.107-1.923
				l-1.876,4.708l0.555,1.115l1.876-4.405l3.558,1.78l2.609-1.27l0.812-3.791l2.925,0.96l0.043-0.972L23.385,19.704z M16.435,21.448
				c0.5-0.233,0.717-0.828,0.483-1.328c-0.233-0.501-0.828-0.718-1.329-0.484c-0.501,0.233-0.717,0.829-0.484,1.329
				C15.339,21.466,15.934,21.682,16.435,21.448z"/>
		</g>
	</g>
</g>
</svg>
