<?xml version="1.0" encoding="iso-8859-1"?>
<!-- Generator: Adobe Illustrator 16.0.0, SVG Export Plug-In . SVG Version: 6.00 Build 0)  -->
<!DOCTYPE svg PUBLIC "-//W3C//DTD SVG 1.1//EN" "http://www.w3.org/Graphics/SVG/1.1/DTD/svg11.dtd">
<svg version="1.1" id="Love_1_" xmlns="http://www.w3.org/2000/svg" xmlns:xlink="http://www.w3.org/1999/xlink" x="0px" y="0px"
	 width="18.998px" height="18.998px" viewBox="0 0 18.998 18.998" style="enable-background:new 0 0 18.998 18.998;"
	 xml:space="preserve">
<g id="Love">
	<g>
		<path style="fill-rule:evenodd;clip-rule:evenodd;fill:#E5E5E5;" d="M8.979,6.305C6.655,0.958-0.491,2.37,0.035,8.411
			C0.01,11.999,8.97,18.279,8.97,18.279s8.869-6.16,9.06-9.755C17.986,2.301,11.492,1.002,8.979,6.305z M8.954,16.609
			c0,0-6.321-4.24-7.705-7.603C0.283,6.658,2.17,4.253,4.132,3.99c3.021,0.436,4.841,4.003,4.841,4.003s2.035-3.769,4.66-3.775
			s4.015,3.053,3.083,5.177C15.349,12.509,8.954,16.609,8.954,16.609z"/>
	</g>
</g>
</svg>
