<?xml version="1.0" encoding="iso-8859-1"?>
<!-- Generator: Adobe Illustrator 16.0.0, SVG Export Plug-In . SVG Version: 6.00 Build 0)  -->
<!DOCTYPE svg PUBLIC "-//W3C//DTD SVG 1.1//EN" "http://www.w3.org/Graphics/SVG/1.1/DTD/svg11.dtd">
<svg version="1.1" xmlns="http://www.w3.org/2000/svg" xmlns:xlink="http://www.w3.org/1999/xlink" x="0px" y="0px" width="94px"
	 height="93px" viewBox="0 0 94 93" style="enable-background:new 0 0 94 93;" xml:space="preserve">
<g id="&#x77E9;&#x5F62;_1_3_" style="enable-background:new    ;">
	<g id="&#x77E9;&#x5F62;_1">
		<g>
			<rect style="fill-rule:evenodd;clip-rule:evenodd;fill:#282728;" width="94" height="93"/>
		</g>
	</g>
</g>
<g id="&#x77E9;&#x5F62;_2_1_" style="enable-background:new    ;">
	<g id="&#x77E9;&#x5F62;_2">
		<g>
			<rect x="93" style="fill-rule:evenodd;clip-rule:evenodd;fill:#1C1C21;" width="1" height="93"/>
		</g>
	</g>
</g>
<g id="&#x77E9;&#x5F62;_1_2_" style="opacity:0.0392;enable-background:new    ;">
	<g id="&#x77E9;&#x5F62;_1_1_">
		<g>
			<path style="fill-rule:evenodd;clip-rule:evenodd;fill:#8B8B8B;" d="M0,0v93h93V0H0z M92,92H1V1h91V92z"/>
		</g>
	</g>
</g>
<g id="Musical_note_1_1_" style="enable-background:new    ;">
	<g id="Musical_note_1">
		<g>
			<path style="fill-rule:evenodd;clip-rule:evenodd;fill:#8B8B8B;" d="M60.942,27.399c-0.001-0.021,0.015-0.039,0.011-0.061
				c-0.012-0.047-0.057-0.07-0.08-0.109c-0.033-0.058-0.057-0.106-0.105-0.146c-0.049-0.04-0.104-0.052-0.168-0.068
				c-0.045-0.015-0.076-0.054-0.127-0.054c-0.023,0-0.035,0.02-0.055,0.023c-0.023,0.002-0.04-0.015-0.062-0.009l-21.978,4.026
				c-0.046,0.013-0.07,0.058-0.109,0.08c-0.056,0.033-0.106,0.056-0.146,0.108c-0.041,0.05-0.052,0.105-0.072,0.168
				c-0.012,0.045-0.05,0.076-0.05,0.124v18.382l-3.081,0.021c-2.248,0-3.824,1.362-3.859,3.584c0,2.248,1.611,3.801,3.859,3.801
				c2.244,0,4.011-1.452,4.011-3.554v-16.75l21.117-3.959v15.809l-3.098-0.039c-2.265,0-3.907,1.317-3.907,3.584
				c0,2.266,1.643,3.537,3.907,3.537s4.014-1.353,4.014-3.454V27.457C60.966,27.434,60.946,27.421,60.942,27.399z M38.002,53.718
				c0,1.557-1.419,2.59-3.081,2.59c-1.665,0-2.897-1.172-2.897-2.837c0-1.664,1.232-2.558,2.897-2.558l3.081,0.036V53.718z
				 M60.05,52.445c0,1.557-1.421,2.466-3.098,2.466s-2.843-0.871-2.843-2.549c0-1.679,1.166-2.347,2.843-2.347l3.098-0.032V52.445z
				 M60.05,31.99l-21.117,3.961v-4.078l21.117-3.788V31.99z"/>
		</g>
	</g>
</g>
</svg>
