<?xml version="1.0" encoding="iso-8859-1"?>
<!-- Generator: Adobe Illustrator 16.0.0, SVG Export Plug-In . SVG Version: 6.00 Build 0)  -->
<!DOCTYPE svg PUBLIC "-//W3C//DTD SVG 1.1//EN" "http://www.w3.org/Graphics/SVG/1.1/DTD/svg11.dtd">
<svg version="1.1" xmlns="http://www.w3.org/2000/svg" xmlns:xlink="http://www.w3.org/1999/xlink" x="0px" y="0px" width="94px"
	 height="93px" viewBox="0 0 94 93" style="enable-background:new 0 0 94 93;" xml:space="preserve">
<g id="&#x5F62;&#x72B6;_201_&#x526F;&#x672C;_14_1_" style="enable-background:new    ;">
	<g id="&#x5F62;&#x72B6;_201_&#x526F;&#x672C;_14">
		<g>
			<rect x="1" style="fill-rule:evenodd;clip-rule:evenodd;fill:#1C1C21;" width="93" height="93"/>
		</g>
	</g>
</g>
<g id="&#x5F62;&#x72B6;_201_&#x526F;&#x672C;_15_1_" style="enable-background:new    ;">
	<g id="&#x5F62;&#x72B6;_201_&#x526F;&#x672C;_15">
		<g>
			<rect style="fill-rule:evenodd;clip-rule:evenodd;fill:#262628;" width="93" height="93"/>
		</g>
	</g>
</g>
<g id="&#x77E9;&#x5F62;_1_1_" style="opacity:0.102;enable-background:new    ;">
	<g id="&#x77E9;&#x5F62;_1">
		<g>
			<path style="fill-rule:evenodd;clip-rule:evenodd;fill:#2F2F2F;" d="M0,0v93h93V0H0z M92,92H1V1h91V92z"/>
		</g>
	</g>
</g>
<g id="&#x5F62;&#x72B6;_208_1_" style="enable-background:new    ;">
	<g id="&#x5F62;&#x72B6;_208">
		<g>
			<path style="fill-rule:evenodd;clip-rule:evenodd;fill:#949494;" d="M43.945,39.942c0,1.655,1.342,2.998,2.998,2.998
				s2.997-1.343,2.997-2.998s-1.342-2.997-2.997-2.997S43.945,38.287,43.945,39.942z M48.94,39.942c0,1.104-0.895,1.998-1.998,1.998
				s-1.999-0.895-1.999-1.998s0.895-1.998,1.999-1.998S48.94,38.839,48.94,39.942z M39.449,39.942c0,4.139,3.354,7.493,7.493,7.493
				c4.138,0,7.493-3.354,7.493-7.493c0-4.138-3.355-7.493-7.493-7.493C42.804,32.449,39.449,35.805,39.449,39.942z M53.436,39.942
				c0,3.587-2.906,6.494-6.493,6.494s-6.494-2.907-6.494-6.494c0-3.586,2.907-6.494,6.494-6.494S53.436,36.356,53.436,39.942z
				 M46.942,21.959c-9.932,0-17.983,8.052-17.983,17.983c0,9.933,8.051,17.983,17.983,17.983c1.985,0,3.891-0.335,5.677-0.929
				v-1.063c-1.777,0.632-3.683,0.993-5.677,0.993c-9.38,0-16.984-7.604-16.984-16.984c0-9.38,7.604-16.984,16.984-16.984
				c9.38,0,16.984,7.604,16.984,16.984c0,2.35-0.478,4.588-1.341,6.624l1.064,0c0.814-2.051,1.275-4.281,1.275-6.623
				C64.926,30.011,56.874,21.959,46.942,21.959z"/>
		</g>
	</g>
</g>
<g id="&#x5F62;&#x72B6;_207_1_" style="enable-background:new    ;">
	<g id="&#x5F62;&#x72B6;_207">
		<g>
			<polygon style="fill-rule:evenodd;clip-rule:evenodd;fill:#949494;" points="64.496,50.996 58.996,50.996 58.996,45.496 
				57.996,45.496 57.996,50.996 52.496,50.996 52.496,51.996 57.996,51.996 57.996,57.496 58.996,57.496 58.996,51.996 
				64.496,51.996 			"/>
		</g>
	</g>
</g>
</svg>
