<?xml version="1.0" encoding="utf-8"?>
<!-- Generator: Adobe Illustrator 15.0.0, SVG Export Plug-In . SVG Version: 6.00 Build 0)  -->
<!DOCTYPE svg PUBLIC "-//W3C//DTD SVG 1.1//EN" "http://www.w3.org/Graphics/SVG/1.1/DTD/svg11.dtd">
<svg version="1.1" id="图层_1" xmlns="http://www.w3.org/2000/svg" xmlns:xlink="http://www.w3.org/1999/xlink" x="0px" y="0px"
	 width="94px" height="93px" viewBox="0 0 94 93" enable-background="new 0 0 94 93" xml:space="preserve">
<g id="矩形_1_3_" enable-background="new    ">
	<g id="矩形_1">
		<g>
			<rect fill="#282728" width="94" height="93"/>
		</g>
	</g>
</g>
<g id="矩形_2_1_" enable-background="new    ">
	<g id="矩形_2">
		<g>
			<rect x="93" fill="#282728" width="1" height="93"/>
		</g>
	</g>
</g>
<g id="矩形_1_2_" opacity="0.0314" enable-background="new    ">
	<g id="矩形_1_1_">
		<g>
			<path fill="#282728" d="M0,0v93h93V0H0z M92,92H1V1h91V92z"/>
		</g>
	</g>
</g>
<g id="形状_226_1_" enable-background="new    ">
	<g id="形状_226">
		<g>
			<path fill="#949494" d="M63.221,39c-1.42-7.956-8.357-14-16.721-14c-8.364,0-15.301,6.044-16.72,14H28.5v5H31v-5h-0.209
				c1.405-7.401,7.899-13,15.709-13c7.811,0,14.305,5.599,15.709,13H62v5h2.5v-5H63.221z"/>
		</g>
	</g>
</g>
<g id="globe_副本_1_" enable-background="new    ">
	<g id="globe_副本">
		<g>
			<path fill="#949494" d="M46.537,27.963h-0.019c-0.005,0-0.011,0.001-0.017,0.001c-8.008,0.019-14.493,7.015-14.493,15.027
				c0,8.01,6.485,14.007,14.493,14.026c0.005,0,0.011,0.002,0.017,0.002h0.019c8.021,0,14.527-6.008,14.527-14.028
				C61.064,34.968,54.559,27.963,46.537,27.963z M43.379,29.506c-1.122,1.169-2.071,2.944-2.749,5.119
				c-1.262-0.384-2.472-0.889-3.618-1.499C38.73,31.38,40.922,30.103,43.379,29.506z M36.209,34.018
				c1.294,0.712,2.667,1.296,4.104,1.731c-0.778,1.816-1.332,4.007-1.374,6.224h-5.753C33.314,38.985,34.427,36.185,36.209,34.018z
				 M36.209,50.965c-1.782-2.168-2.895-4.999-3.023-7.985h5.753c-0.048,2.713,0.405,4.398,0.874,6.252
				C38.376,49.669,37.503,50.253,36.209,50.965z M37.008,51.852c1.147-0.611,1.858-1.115,3.121-1.5
				c0.677,2.176,2.126,3.955,3.25,5.125C40.921,54.878,38.727,53.602,37.008,51.852z M46.018,55.777
				c-1.578-0.41-3.744-2.51-4.763-5.735c1.353-0.329,3.32-0.521,4.763-0.562V55.777z M46.018,48.318
				c-1.552,0.041-3.625,0.248-5.08,0.604c-0.436-1.712-0.769-3.363-0.829-5.944h5.909V48.318z M46.018,41.973h-5.909
				c0.042-2.167,0.464-4,1.33-5.92c1.455,0.356,3.027,0.563,4.58,0.604L46.018,41.973L46.018,41.973z M46.018,35.494
				c-1.442-0.04-2.909-0.231-4.261-0.561c1.02-3.223,2.685-5.319,4.261-5.73V35.494z M56.861,34.013
				c1.785,2.169,2.897,4.972,3.027,7.96h-5.693c-0.211-2.549-0.566-4.588-1.471-6.217C54.174,35.318,55.559,34.731,56.861,34.013z
				 M56.063,33.126c-1.156,0.615-2.377,1.123-3.651,1.51c-0.681-2.187-1.634-3.971-2.763-5.143
				C52.123,30.088,54.333,31.368,56.063,33.126z M46.993,29.217c1.567,0.434,3.278,2.522,4.29,5.726
				c-1.342,0.323-2.859,0.512-4.29,0.552V29.217z M46.993,36.657c1.54-0.042,3.163-0.245,4.606-0.598
				c0.799,1.58,1.383,3.75,1.426,5.913h-6.032V36.657z M46.993,42.979h6.032c-0.226,2.826-0.49,4.225-0.924,5.937
				c-1.443-0.352-3.568-0.557-5.108-0.598V42.979z M46.993,55.766V49.48c1.431,0.039,3.448,0.229,4.792,0.554
				C50.773,53.24,48.561,55.331,46.993,55.766z M49.648,55.486c1.129-1.172,2.584-2.956,3.264-5.146
				c1.275,0.387,1.996,0.895,3.152,1.512C54.336,53.611,52.125,54.895,49.648,55.486z M56.865,50.964
				c-1.305-0.718-2.188-1.306-3.639-1.743c0.467-1.852,0.907-3.389,0.969-6.241h5.693C59.76,45.966,58.646,48.796,56.865,50.964z"/>
		</g>
	</g>
</g>
</svg>
