<?xml version="1.0" encoding="utf-8"?>
<!-- Generator: Adobe Illustrator 15.0.0, SVG Export Plug-In . SVG Version: 6.00 Build 0)  -->
<!DOCTYPE svg PUBLIC "-//W3C//DTD SVG 1.1//EN" "http://www.w3.org/Graphics/SVG/1.1/DTD/svg11.dtd">
<svg version="1.1" id="形状_1_1_" xmlns="http://www.w3.org/2000/svg" xmlns:xlink="http://www.w3.org/1999/xlink" x="0px"
	 y="0px" width="19.998px" height="19.998px" viewBox="0 0 19.998 19.998" enable-background="new 0 0 19.998 19.998"
	 xml:space="preserve">
<g id="形状_1">
	<g>
		<path fill-rule="evenodd" clip-rule="evenodd" fill="#767F8A" d="M3,4v12.959h13.956V4H3z M5.99,15.961H3.997v-1.994H5.99V15.961z
			 M5.99,12.971H3.997v-1.994H5.99V12.971z M5.99,9.98H3.997V7.987H5.99V9.98z M5.99,6.99H3.997V4.996H5.99V6.99z M13,15.961H6.987
			v-4.984H13V15.961z M13,9.98H6.987V4.996H13V9.98z M15.99,15.961h-2.024v-1.994h2.024V15.961z M15.99,12.971h-2.024v-1.994h2.024
			V12.971z M15.99,9.98h-2.024V7.987h2.024V9.98z M15.99,6.99h-2.024V4.996h2.024V6.99z"/>
	</g>
</g>
</svg>
