<?xml version="1.0" encoding="utf-8"?>
<!-- Generator: Adobe Illustrator 15.0.0, SVG Export Plug-In . SVG Version: 6.00 Build 0)  -->
<!DOCTYPE svg PUBLIC "-//W3C//DTD SVG 1.1//EN" "http://www.w3.org/Graphics/SVG/1.1/DTD/svg11.dtd">
<svg version="1.1" id="Music_1_" xmlns="http://www.w3.org/2000/svg" xmlns:xlink="http://www.w3.org/1999/xlink" x="0px" y="0px"
	 width="19.998px" height="19.998px" viewBox="0 0 19.998 19.998" enable-background="new 0 0 19.998 19.998" xml:space="preserve">
<g id="Music">
	<g>
		<path fill-rule="evenodd" clip-rule="evenodd" fill="#767F8A" d="M17.004,15.637c0.011-0.06,0.026-0.118,0.026-0.18
			s-0.016-0.12-0.026-0.18V3.977L6.006,5.976v9.192c-0.302-0.135-0.641-0.217-0.988-0.217c-1.026,0-1.982,0.46-2.014,1.507
			c0.045,0.977,0.988,1.507,2.014,1.507c0.801,0,1.573-0.414,1.875-0.991h0.112v-0.336c0.01-0.06,0.026-0.118,0.026-0.18
			s-0.016-0.12-0.026-0.18V7.211l8.998-1.637v8.593c-0.302-0.134-0.641-0.216-0.988-0.216c-1.025,0-1.982,0.459-2.014,1.506
			c0.045,0.978,0.988,1.507,2.014,1.507c0.802,0,1.574-0.414,1.876-0.991h0.112V15.637z"/>
	</g>
</g>
</svg>
