<?xml version="1.0" encoding="utf-8"?>
<!-- Generator: Adobe Illustrator 15.0.0, SVG Export Plug-In . SVG Version: 6.00 Build 0)  -->
<!DOCTYPE svg PUBLIC "-//W3C//DTD SVG 1.1//EN" "http://www.w3.org/Graphics/SVG/1.1/DTD/svg11.dtd">
<svg version="1.1" id="one_1_" xmlns="http://www.w3.org/2000/svg" xmlns:xlink="http://www.w3.org/1999/xlink" x="0px" y="0px"
	 width="22px" height="16px" viewBox="0 0 22 16" enable-background="new 0 0 22 16" xml:space="preserve">
<g id="nor" opacity="0.6314">
	<g>
		<path fill-rule="evenodd" clip-rule="evenodd" fill="#FFFFFF" d="M11,12.986V6h-1c0,0-0.594,0.938-2,0.969V8h2v4.986H11z
			 M21.935,11.132v-0.135h-0.042c-0.449-1.751-2.025-3.052-3.918-3.052c-0.639,0-1.236,0.161-1.774,0.425l-0.124-0.181l-0.855,0.59
			l0.114,0.165c-0.862,0.744-1.419,1.832-1.419,3.06c0,1.217,0.547,2.295,1.394,3.039H3.97c-1.179,0.06-3.048-1.267-3.048-2.683
			V5.707c0.03-1.268,1.395-2.713,3.018-2.713h11.051l-0.009,1.993l4.153-1.993h-0.146v0.044c-0.04-0.012-0.084-0.041-0.122-0.044
			h0.122V2.455l0.003-0.002l-0.003-0.001V2.085C18.744,2.023,18.757,2.104,19,2l-3.996-2.074l-0.009,2.041H3.919
			c-2.038,0-3.921,1.806-3.921,3.844v6.379c0,2.038,1.883,3.776,3.921,3.776h13.192c0.278,0.061,0.566,0.097,0.863,0.097
			c2.242,0,4.059-1.816,4.059-4.059C22.033,11.704,21.996,11.413,21.935,11.132z M17.953,15.232c-1.783,0-3.229-1.446-3.229-3.229
			c0-0.95,0.418-1.797,1.072-2.388l3.617,5.252C18.975,15.093,18.482,15.232,17.953,15.232z M20.258,14.261l-3.592-5.216
			c0.395-0.172,0.828-0.271,1.287-0.271c1.783,0,3.229,1.446,3.229,3.229C21.182,12.883,20.828,13.678,20.258,14.261z"/>
	</g>
</g>
</svg>
