<?xml version="1.0" encoding="iso-8859-1"?>
<!-- Generator: Adobe Illustrator 16.0.0, SVG Export Plug-In . SVG Version: 6.00 Build 0)  -->
<!DOCTYPE svg PUBLIC "-//W3C//DTD SVG 1.1//EN" "http://www.w3.org/Graphics/SVG/1.1/DTD/svg11.dtd">
<svg version="1.1" xmlns="http://www.w3.org/2000/svg" xmlns:xlink="http://www.w3.org/1999/xlink" x="0px" y="0px"
	 width="155.981px" height="23.997px" viewBox="0 0 155.981 23.997" style="enable-background:new 0 0 155.981 23.997;"
	 xml:space="preserve">
<g id="&#x5F62;&#x72B6;_236_1_" style="enable-background:new    ;">
	<g id="&#x5F62;&#x72B6;_236">
		<g>
			<path style="fill-rule:evenodd;clip-rule:evenodd;fill:#159BE8;" d="M152.977,0H3.011c-1.656,0-3,1.342-3,3v17.998
				c0,1.657,1.343,3,3,3h149.966c1.657,0,3-1.343,3-3V3C155.977,1.342,154.634,0,152.977,0z"/>
		</g>
	</g>
</g>
<g id="&#x5F62;&#x72B6;_236_&#x526F;&#x672C;_1_" style="enable-background:new    ;">
	<g id="&#x5F62;&#x72B6;_236_&#x526F;&#x672C;">
		<g>
			<path style="fill-rule:evenodd;clip-rule:evenodd;fill:#2BB0FC;" d="M155.199,1c-0.549-0.609-1.337-1-2.222-1H3.011
				C2.126,0,1.339,0.39,0.791,1H155.199z"/>
		</g>
	</g>
</g>
<g id="&#x5F62;&#x72B6;_3_1_" style="enable-background:new    ;">
	<g id="&#x5F62;&#x72B6;_3">
		<g>
			<path style="fill-rule:evenodd;clip-rule:evenodd;fill:#E3F3FC;" d="M16.98,5.027v0.998h0.997v1.001h0.998V5.027H16.98z
				 M7.999,17.999h1.996v-0.997H8.997V6.025h0.998V5.027H7.999V17.999z"/>
		</g>
	</g>
</g>
<g id="&#x5F62;&#x72B6;_4_1_" style="enable-background:new    ;">
	<g id="&#x5F62;&#x72B6;_4">
		<g>
			<polygon style="fill-rule:evenodd;clip-rule:evenodd;fill:#E3F3FC;" points="14.984,5.027 14.984,4.029 11.99,4.029 11.99,5.027 
				10.992,5.027 10.992,6.025 15.982,6.025 15.982,5.027 			"/>
		</g>
	</g>
</g>
<g id="&#x5F62;&#x72B6;_1_1_" style="enable-background:new    ;">
	<g id="&#x5F62;&#x72B6;_1">
		<g>
			<path style="fill-rule:evenodd;clip-rule:evenodd;fill:#E3F3FC;" d="M17.977,11.015h-4.989v0.998h4.989V11.015z M17.977,13.01
				h-4.989v0.998h4.989V13.01z M10.992,8.021v10.976h8.981V8.021H10.992z M18.975,17.999H11.99v-8.98h6.985V17.999z M17.977,15.006
				h-4.989v0.998h4.989V15.006z"/>
		</g>
	</g>
</g>
</svg>
