<?xml version="1.0" encoding="iso-8859-1"?>
<!-- Generator: Adobe Illustrator 16.0.0, SVG Export Plug-In . SVG Version: 6.00 Build 0)  -->
<!DOCTYPE svg PUBLIC "-//W3C//DTD SVG 1.1//EN" "http://www.w3.org/Graphics/SVG/1.1/DTD/svg11.dtd">
<svg version="1.1" id="Backward_1_" xmlns="http://www.w3.org/2000/svg" xmlns:xlink="http://www.w3.org/1999/xlink" x="0px"
	 y="0px" width="27px" height="19px" viewBox="0 0 27 19" style="enable-background:new 0 0 27 19;" xml:space="preserve">
<g id="Backward">
	<g>
		<path style="fill-rule:evenodd;clip-rule:evenodd;fill:#ACB0B5;" d="M23.336,7.228l-7.492-5.938
			c-0.31-0.179-0.834-0.269-1.149-0.269c-0.872,0-1.701,0.241-1.708,1.53v4.955c-0.108-0.102-0.232-0.196-0.374-0.278L4.453,1.291
			c-1.237-0.622-2.496-0.21-2.467,1.26v11.867c0,0.428,0.325,0.924,0.555,1.197c0.248,0.296,0.805,0.333,1.201,0.333v0.031
			c0.292,0,0.592-0.118,0.889-0.289l8.011-5.931c0.128-0.074,0.244-0.159,0.345-0.252v4.941c0,0.438,0.317,0.946,0.598,1.226
			c0.271,0.27,0.888,0.305,1.291,0.305c0.311,0,0.63-0.089,0.923-0.258l7.61-5.958c0.5-0.289,0.797-0.74,0.797-1.229
			C24.205,8.023,23.889,7.547,23.336,7.228z M12.025,8.762l-8.129,5.931c-0.133,0.076-0.234,0.09-0.282,0.09
			c-0.064,0-0.289-0.021-0.305-0.041c-0.049-0.059-0.281-0.18-0.281-0.323V2.582c0-0.166,0.235-0.363,0.389-0.363
			c0.048,0,0.255,0.013,0.409,0.102l8.131,5.905c0.212,0.123,0.307,0.233,0.307,0.28C12.264,8.551,12.209,8.655,12.025,8.762z
			 M22.797,8.762l-7.759,5.927c-0.102,0.059-0.216,0.094-0.322,0.094c-0.066,0-0.36-0.014-0.426-0.079
			c-0.075-0.075-0.294-0.197-0.294-0.285V2.551c0-0.301,0.388-0.363,0.542-0.363c0.11,0,0.332,0.035,0.447,0.102l7.699,5.938
			c0.226,0.131,0.329,0.255,0.328,0.305C23.013,8.572,22.965,8.665,22.797,8.762z"/>
	</g>
</g>
</svg>
