<?xml version="1.0" encoding="utf-8"?>
<!-- Generator: Adobe Illustrator 16.0.0, SVG Export Plug-In . SVG Version: 6.00 Build 0)  -->
<!DOCTYPE svg PUBLIC "-//W3C//DTD SVG 1.1//EN" "http://www.w3.org/Graphics/SVG/1.1/DTD/svg11.dtd">
<svg version="1.1" id="random_1_" xmlns="http://www.w3.org/2000/svg" xmlns:xlink="http://www.w3.org/1999/xlink" x="0px" y="0px"
	 width="22px" height="16px" viewBox="0 0 22 16" enable-background="new 0 0 22 16" xml:space="preserve">
<g id="nor" opacity="0.6314">
	<g>
		<path fill-rule="evenodd" clip-rule="evenodd" fill="#FFFFFF" d="M21.069,13l-4.067-2.131l0.01,2.13l-3.304-0.001
			c0,0-0.889-0.132-1.303-0.994c0,0-0.945-1.54-2.011-3.275c1.174-1.911,2.292-3.732,2.292-3.732
			c0.414-0.862,1.303-0.994,1.303-0.994l2.99-0.001l-0.009,1.974L21.004,4h0.003l-0.001-0.573l0.005-0.003l-0.005-0.003V2.972
			l0.166,0.004l-4.18-1.971L16.983,2.99l-2.97,0.014c-1.581-0.045-2.036,0.988-2.036,0.988L9.73,7.648
			C8.576,5.771,7.478,3.985,7.442,3.934C6.92,3.18,5.521,2.989,5.562,3.008L0.995,3.007l0.007,1.024h3.936
			c0,0,1.119-0.082,1.875,1.031l2.254,3.666l-1.973,3.209c-0.756,1.113-1.875,1.031-1.875,1.031h-4.25l-0.007,1.056l4.881-0.032
			c-0.041,0.019,1.359-0.172,1.88-0.926c0.033-0.047,0.962-1.558,2.007-3.258l1.966,3.199c0,0,0.455,1.033,2.036,0.988l3.283,0.015
			l0.008,1.734l3.909-1.72l0.073,0.003v-0.339l0.005-0.176l-0.004-0.207V13H21.069z"/>
	</g>
</g>
</svg>
