<?xml version="1.0" encoding="iso-8859-1"?>
<!-- Generator: Adobe Illustrator 16.0.0, SVG Export Plug-In . SVG Version: 6.00 Build 0)  -->
<!DOCTYPE svg PUBLIC "-//W3C//DTD SVG 1.1//EN" "http://www.w3.org/Graphics/SVG/1.1/DTD/svg11.dtd">
<svg version="1.1" xmlns="http://www.w3.org/2000/svg" xmlns:xlink="http://www.w3.org/1999/xlink" x="0px" y="0px" width="44px"
	 height="44px" viewBox="0 0 44 44" style="enable-background:new 0 0 44 44;" xml:space="preserve">
<g id="Shape_525_1_" style="opacity:0.302;enable-background:new    ;">
	<g id="Shape_525">
		<g>
			<path style="fill-rule:evenodd;clip-rule:evenodd;fill:#FFFFFF;" d="M20.008,29v1h3v-1H20.008z M16.008,30h3v-1h-3V30z
				 M13.008,27h-1v3h1h2v-1h-2V27z M13.008,22h-1v4h1V22z M12.008,19v2h1v-2h2v-1h-3V19z"/>
		</g>
	</g>
</g>
<g id="&#x5F62;&#x72B6;_1_1_" style="enable-background:new    ;">
	<g id="&#x5F62;&#x72B6;_1">
		<g>
			<path style="fill-rule:evenodd;clip-rule:evenodd;fill:#FFFFFF;" d="M20.14,13.27l-4.649,9.97l13.595,6.339l4.648-9.97
				L20.14,13.27z M28.602,28.249L16.82,22.755l3.804-8.156l11.782,5.494L28.602,28.249z"/>
		</g>
	</g>
</g>
<g id="&#x5F62;&#x72B6;_4_1_" style="enable-background:new    ;">
	<g id="&#x5F62;&#x72B6;_4">
		<g>
			<path style="fill-rule:evenodd;clip-rule:evenodd;fill:#FFFFFF;" d="M27.334,22.754l-4.107,1.923l-1.638-0.653l-0.974-4.319
				l-3.782,1.176l0.043,0.972l2.925-0.96l0.811,3.791l2.609,1.27l3.558-1.78l1.876,4.405l0.556-1.115L27.334,22.754z M27.565,21.448
				c0.501,0.233,1.096,0.018,1.329-0.483c0.233-0.5,0.018-1.096-0.484-1.329c-0.5-0.233-1.095-0.017-1.328,0.484
				C26.849,20.62,27.064,21.215,27.565,21.448z"/>
		</g>
	</g>
</g>
</svg>
