<?xml version="1.0" encoding="iso-8859-1"?>
<!-- Generator: Adobe Illustrator 16.0.0, SVG Export Plug-In . SVG Version: 6.00 Build 0)  -->
<!DOCTYPE svg PUBLIC "-//W3C//DTD SVG 1.1//EN" "http://www.w3.org/Graphics/SVG/1.1/DTD/svg11.dtd">
<svg version="1.1" id="&#x5706;&#x89D2;&#x77E9;&#x5F62;_2_1_"
	 xmlns="http://www.w3.org/2000/svg" xmlns:xlink="http://www.w3.org/1999/xlink" x="0px" y="0px" width="252px" height="24px"
	 viewBox="0 0 252 24" style="enable-background:new 0 0 252 24;" xml:space="preserve">
<g id="&#x5706;&#x89D2;&#x77E9;&#x5F62;_2">
	<g>
		<path style="fill-rule:evenodd;clip-rule:evenodd;fill:#7C7D7F;" d="M240,1H12C5.925,1,1,5.925,1,12s4.925,11,11,11h48.001
			l0.007-0.182l-0.013-0.829c0,0-47.103,0.011-47.972-0.009C6.485,22.031,2,17.585,1.985,11.974C2,6.48,6.485,2,12.01,1.988
			C12.722,1.983,239.192,2,240.044,1.958C245.568,2,250,6.48,250.015,11.982c-0.015,5.603-4.446,10.049-9.995,10.006
			c-0.217-0.005-179.98,0.005-179.98,0.005l-0.031,0.825L60.011,23H240c6.075,0,11-4.925,11-11S246.075,1,240,1z"/>
	</g>
</g>
</svg>
