<?xml version="1.0" encoding="iso-8859-1"?>
<!-- Generator: Adobe Illustrator 16.0.0, SVG Export Plug-In . SVG Version: 6.00 Build 0)  -->
<!DOCTYPE svg PUBLIC "-//W3C//DTD SVG 1.1//EN" "http://www.w3.org/Graphics/SVG/1.1/DTD/svg11.dtd">
<svg version="1.1" xmlns="http://www.w3.org/2000/svg" xmlns:xlink="http://www.w3.org/1999/xlink" x="0px" y="0px" width="13px"
	 height="14px" viewBox="0 0 13 14" style="enable-background:new 0 0 13 14;" xml:space="preserve">
<g id="&#x692D;&#x5706;_1_1_" style="enable-background:new    ;">
	<g id="&#x692D;&#x5706;_1">
		<g>
			<path style="fill-rule:evenodd;clip-rule:evenodd;fill:#707073;" d="M6,1C3.239,1,1,3.238,1,6s2.239,5,5,5c2.762,0,5-2.238,5-5
				S8.762,1,6,1z M6,10c-2.209,0-4-1.791-4-4s1.791-4,4-4s4,1.791,4,4S8.209,10,6,10z"/>
		</g>
	</g>
</g>
<g id="&#x77E9;&#x5F62;_1_1_" style="enable-background:new    ;">
	<g id="&#x77E9;&#x5F62;_1">
		<g>
			<path style="fill-rule:evenodd;clip-rule:evenodd;fill:#707073;" d="M12.77,11.883L9.424,8.537L8.582,9.38l3.345,3.346
				c0.329,0.328,0.568,0.387,0.962,0.189C13.387,12.437,12.77,11.883,12.77,11.883z"/>
		</g>
	</g>
</g>
</svg>
