<?xml version="1.0" encoding="iso-8859-1"?>
<!-- Generator: Adobe Illustrator 16.0.0, SVG Export Plug-In . SVG Version: 6.00 Build 0)  -->
<!DOCTYPE svg PUBLIC "-//W3C//DTD SVG 1.1//EN" "http://www.w3.org/Graphics/SVG/1.1/DTD/svg11.dtd">
<svg version="1.1" xmlns="http://www.w3.org/2000/svg" xmlns:xlink="http://www.w3.org/1999/xlink" x="0px" y="0px"
	 width="14.999px" height="14.998px" viewBox="0 0 14.999 14.998" style="enable-background:new 0 0 14.999 14.998;"
	 xml:space="preserve">
<g id="_x32__1_" style="enable-background:new    ;">
	<g id="_x32_">
		<g>
			<path style="fill-rule:evenodd;clip-rule:evenodd;fill:#009CFF;" d="M7.145,8.961c0.405,0.219,0.58,0.219,1.019,0l6.635-3.603
				c0.239-0.103,0.349-0.946,0-1.165L8.164,0.151c-0.36-0.244-0.613-0.231-1.019,0L0.269,4.193c-0.31,0.313-0.36,0.946,0,1.165
				L7.145,8.961z M7.636,0.623l6.81,4.154L7.645,8.457L0.552,4.776L7.636,0.623z M7.145,11.898c0.405,0.218,0.58,0.218,1.019,0
				l6.635-3.447c0.226-0.12,0.245-0.633,0.245-0.938c-0.295,0.169-0.617,0.379-0.656,0.413c-0.04,0.031-6.733,3.559-6.733,3.559
				L0.68,7.926c0.016,0.01-0.414-0.212-0.721-0.413c0,0.299,0.065,0.79,0.31,0.938L7.145,11.898z M7.645,14.432L0.68,11.018
				c0.016,0.012-0.414-0.211-0.721-0.412c0,0.3,0.065,0.791,0.31,0.939l6.876,3.301c0.405,0.219,0.58,0.219,1.019,0l6.635-3.301
				c0.226-0.121,0.245-0.633,0.245-0.939c-0.295,0.17-0.648,0.41-0.656,0.412L7.645,14.432z"/>
		</g>
	</g>
</g>
<g id="_x32__&#x526F;&#x672C;_1_" style="opacity:0.502;enable-background:new    ;">
	<g id="_x32__&#x526F;&#x672C;">
		<g>
			<path style="fill-rule:evenodd;clip-rule:evenodd;fill:#009CFF;" d="M7.145,11.898c0.405,0.218,0.58,0.218,1.019,0l6.635-3.447
				c0.226-0.12,0.245-0.633,0.245-0.938c-0.295,0.169-0.617,0.379-0.656,0.413c-0.04,0.031-6.733,3.559-6.733,3.559L0.68,7.926
				c0.016,0.01-0.414-0.212-0.721-0.413c0,0.299,0.065,0.79,0.31,0.938L7.145,11.898z M7.645,14.432L0.68,11.018
				c0.016,0.012-0.414-0.211-0.721-0.412c0,0.3,0.065,0.791,0.31,0.939l6.876,3.301c0.405,0.219,0.58,0.219,1.019,0l6.635-3.301
				c0.226-0.121,0.245-0.633,0.245-0.939c-0.295,0.17-0.648,0.41-0.656,0.412L7.645,14.432z M7.145,8.961
				c0.405,0.219,0.58,0.219,1.019,0l6.635-3.603c0.239-0.103,0.349-0.946,0-1.165L8.164,0.151c-0.36-0.244-0.613-0.231-1.019,0
				L0.269,4.193c-0.31,0.313-0.36,0.946,0,1.165L7.145,8.961z M7.636,0.623l6.81,4.154L7.645,8.457L0.552,4.776L7.636,0.623z"/>
		</g>
	</g>
</g>
</svg>
