<?xml version="1.0" encoding="iso-8859-1"?>
<!-- Generator: Adobe Illustrator 16.0.0, SVG Export Plug-In . SVG Version: 6.00 Build 0)  -->
<!DOCTYPE svg PUBLIC "-//W3C//DTD SVG 1.1//EN" "http://www.w3.org/Graphics/SVG/1.1/DTD/svg11.dtd">
<svg version="1.1" id="&#x77E9;&#x5F62;_5_1_" xmlns="http://www.w3.org/2000/svg" xmlns:xlink="http://www.w3.org/1999/xlink"
	 x="0px" y="0px" width="14.999px" height="14.998px" viewBox="0 0 14.999 14.998"
	 style="enable-background:new 0 0 14.999 14.998;" xml:space="preserve">
<g id="&#x77E9;&#x5F62;_5">
	<g>
		<path style="fill-rule:evenodd;clip-rule:evenodd;fill:#009CFF;" d="M0,6.749h2.25v-0.75H0V6.749z M0,4.5h2.25V3.75H0V4.5z
			 M3.75,14.998H4.5v-2.25H3.75V14.998z M10.499,14.998h0.75v-2.25h-0.75V14.998z M8.249,14.998h0.75v-2.25h-0.75V14.998z M6,14.998
			h0.75v-2.25H6V14.998z M8.999,0h-0.75v2.25h0.75V0z M5.25,9.749H6v-0.75H5.25V9.749z M11.249,0h-0.75v2.25h0.75V0z M0,8.999h2.25
			v-0.75H0V8.999z M6.75,0H6v2.25h0.75V0z M0,11.248h2.25v-0.75H0V11.248z M4.5,0H3.75v2.25H4.5V0z M5.25,8.249H6v-1.5H5.25V8.249z
			 M12.749,11.248h2.25v-0.75h-2.25V11.248z M3,11.998h8.999V3H3V11.998z M3.75,3.75h7.499v7.499H3.75V3.75z M12.749,8.999h2.25
			v-0.75h-2.25V8.999z M12.749,6.749h2.25v-0.75h-2.25V6.749z M5.25,5.999H6V5.25H5.25V5.999z M12.749,3.75V4.5h2.25V3.75H12.749z
			 M8.999,5.999h0.75V5.25h-0.75V5.999z M6.75,9.749h1.499v-0.75H6.75V9.749z M6.75,8.249h1.499v-1.5H6.75V8.249z M8.999,9.749h0.75
			v-0.75h-0.75V9.749z M6.75,5.999h1.499V5.25H6.75V5.999z M8.999,8.249h0.75v-1.5h-0.75V8.249z"/>
	</g>
</g>
</svg>
