<?xml version="1.0" encoding="iso-8859-1"?>
<!-- Generator: Adobe Illustrator 16.0.0, SVG Export Plug-In . SVG Version: 6.00 Build 0)  -->
<!DOCTYPE svg PUBLIC "-//W3C//DTD SVG 1.1//EN" "http://www.w3.org/Graphics/SVG/1.1/DTD/svg11.dtd">
<svg version="1.1" id="&#x5F62;&#x72B6;_263_1_" xmlns="http://www.w3.org/2000/svg" xmlns:xlink="http://www.w3.org/1999/xlink"
	 x="0px" y="0px" width="14.999px" height="14.998px" viewBox="0 0 14.999 14.998"
	 style="enable-background:new 0 0 14.999 14.998;" xml:space="preserve">
<g id="&#x5F62;&#x72B6;_263">
	<g>
		<path style="fill-rule:evenodd;clip-rule:evenodd;fill:#646A73;" d="M8.249,9.749H6.75v1.499h1.499V9.749z M13.499,12.748h-0.75
			v0.75h0.75V12.748z M8.249,5.25H6.75v3.75h1.499V5.25z M13.499,1.5h-0.75v0.75h0.75V1.5z M0,0v14.998h14.999V0H0z M14.249,14.248
			H0.75V0.75h13.499V14.248z M2.25,12.748H1.5v0.75h0.75V12.748z M9.749,2.25H5.25v10.499h4.499V2.25z M8.999,11.998H6V4.5h2.999
			V11.998z M8.999,3.75H6V3h2.999V3.75z M2.25,1.5H1.5v0.75h0.75V1.5z"/>
	</g>
</g>
</svg>
