<?xml version="1.0" encoding="iso-8859-1"?>
<!-- Generator: Adobe Illustrator 16.0.0, SVG Export Plug-In . SVG Version: 6.00 Build 0)  -->
<!DOCTYPE svg PUBLIC "-//W3C//DTD SVG 1.1//EN" "http://www.w3.org/Graphics/SVG/1.1/DTD/svg11.dtd">
<svg version="1.1" xmlns="http://www.w3.org/2000/svg" xmlns:xlink="http://www.w3.org/1999/xlink" x="0px" y="0px"
	 width="14.999px" height="14.998px" viewBox="0 0 14.999 14.998" style="enable-background:new 0 0 14.999 14.998;"
	 xml:space="preserve">
<g id="&#x77E9;&#x5F62;_6_&#x526F;&#x672C;_1_" style="enable-background:new    ;">
	<g id="&#x77E9;&#x5F62;_6_&#x526F;&#x672C;">
		<g>
			<path style="fill-rule:evenodd;clip-rule:evenodd;fill:#009CFF;" d="M14.933,6.749C14.471,3.791,11.323,1.5,7.499,1.5
				C3.357,1.5,0,4.186,0,7.499c0,3.313,3.357,5.999,7.499,5.999c4.142,0,7.5-2.686,7.5-5.999v-0.75H14.933z M7.499,12.591
				c-2.171,0-4.091-0.826-5.282-2.093h6.107c0.156,0.436,0.561,0.75,1.049,0.75c0.621,0,1.125-0.504,1.125-1.125
				c0-0.62-0.504-1.124-1.125-1.124c-0.488,0-0.893,0.315-1.049,0.75H1.633c-0.431-0.679-0.68-1.441-0.68-2.25
				s0.249-1.571,0.68-2.25h6.692c0.156,0.435,0.561,0.75,1.049,0.75c0.621,0,1.125-0.503,1.125-1.125S9.995,3.75,9.374,3.75
				c-0.488,0-0.893,0.315-1.049,0.75H2.217c1.191-1.266,3.11-2.092,5.282-2.092c3.287,0,6,1.886,6.468,4.342H6.673
				c-0.155-0.435-0.561-0.75-1.049-0.75C5.003,5.999,4.5,6.503,4.5,7.124s0.503,1.125,1.125,1.125c0.488,0,0.894-0.315,1.049-0.75
				h7.372C14.045,10.311,11.115,12.591,7.499,12.591z"/>
		</g>
	</g>
</g>
<g id="&#x77E9;&#x5F62;_6_&#x526F;&#x672C;_2_1_" style="opacity:0.302;enable-background:new    ;">
	<g id="&#x77E9;&#x5F62;_6_&#x526F;&#x672C;_2">
		<g>
			<path style="fill-rule:evenodd;clip-rule:evenodd;fill:#009CFF;" d="M14.933,6.749C14.471,3.791,11.323,1.5,7.499,1.5
				C3.357,1.5,0,4.186,0,7.499c0,3.313,3.357,5.999,7.499,5.999c4.142,0,7.5-2.686,7.5-5.999v-0.75H14.933z M7.499,12.591
				c-2.171,0-4.091-0.826-5.282-2.093h6.107c0.156,0.436,0.561,0.75,1.049,0.75c0.621,0,1.125-0.504,1.125-1.125
				c0-0.62-0.504-1.124-1.125-1.124c-0.488,0-0.893,0.315-1.049,0.75H1.633c-0.431-0.679-0.68-1.441-0.68-2.25
				s0.249-1.571,0.68-2.25h6.692c0.156,0.435,0.561,0.75,1.049,0.75c0.621,0,1.125-0.503,1.125-1.125S9.995,3.75,9.374,3.75
				c-0.488,0-0.893,0.315-1.049,0.75H2.217c1.191-1.266,3.11-2.092,5.282-2.092c3.287,0,6,1.886,6.468,4.342H6.673
				c-0.155-0.435-0.561-0.75-1.049-0.75C5.003,5.999,4.5,6.503,4.5,7.124s0.503,1.125,1.125,1.125c0.488,0,0.894-0.315,1.049-0.75
				h7.372C14.045,10.311,11.115,12.591,7.499,12.591z"/>
		</g>
	</g>
</g>
</svg>
