<?xml version="1.0" encoding="utf-8"?>
<!-- Generator: Adobe Illustrator 15.0.0, SVG Export Plug-In . SVG Version: 6.00 Build 0)  -->
<!DOCTYPE svg PUBLIC "-//W3C//DTD SVG 1.1//EN" "http://www.w3.org/Graphics/SVG/1.1/DTD/svg11.dtd">
<svg version="1.1" id="设置_xFF08_未用_xFF09__1_"
	 xmlns="http://www.w3.org/2000/svg" xmlns:xlink="http://www.w3.org/1999/xlink" x="0px" y="0px" width="24px" height="24px"
	 viewBox="0 0 24 24" enable-background="new 0 0 24 24" xml:space="preserve">
<g id="设置_xFF08_未用_xFF09_">
	<g>
		<path fill-rule="evenodd" clip-rule="evenodd" fill="#7E8690" d="M19.772,11.355l1.607-2.412l-1.102-2.21l-0.981-1.256
			l-3.234,0.714l-0.928-0.434l-1.176-2.767l-3.68-0.006L9.136,5.551L7.943,6.186L4.894,5.443L3.73,6.755L3.007,9.177l1.53,1.936
			v1.549l-1.423,2.48l1.567,3.062l3.04-0.445l1.007,0.511l1.458,2.723l4.051-0.009l0.846-2.308l1.634-0.782l2.435,0.647l2.027-3.332
			l-1.407-2.505V11.355z M19.789,15.095l-0.922,1.764l-2.377-0.379l-2.242,0.958L13.1,19.713l-1.836-0.016l-1.204-2.162
			l-1.997-1.228l-2.271,0.207L4.9,14.931l0.994-1.687v-2.646L4.663,8.875l0.826-1.852l2.895,0.396L9.93,6.655l1.202-2.332
			l2.029,0.004l1.156,2.422l1.588,0.854l2.978-0.558l1.092,2.017l-1.554,2.071l0.02,1.893L19.789,15.095z M12.189,8.551
			c-1.916,0-3.47,1.554-3.47,3.47c0,1.917,1.554,3.47,3.47,3.47s3.47-1.553,3.47-3.47C15.659,10.104,14.105,8.551,12.189,8.551z
			 M12.189,14.103c-1.149,0-2.082-0.932-2.082-2.082c0-1.149,0.932-2.081,2.082-2.081c1.15,0,2.082,0.932,2.082,2.081
			C14.271,13.171,13.34,14.103,12.189,14.103z"/>
	</g>
</g>
</svg>
