<?xml version="1.0" encoding="utf-8"?>
<!-- Generator: Adobe Illustrator 16.0.0, SVG Export Plug-In . SVG Version: 6.00 Build 0)  -->
<!DOCTYPE svg PUBLIC "-//W3C//DTD SVG 1.1//EN" "http://www.w3.org/Graphics/SVG/1.1/DTD/svg11.dtd">
<svg version="1.1" id="设置_xFF08_未用_xFF09__1_"
	 xmlns="http://www.w3.org/2000/svg" xmlns:xlink="http://www.w3.org/1999/xlink" x="0px" y="0px" width="20px" height="20px"
	 viewBox="37.5 37.5 20 20" enable-background="new 37.5 37.5 20 20" xml:space="preserve">
<g id="设置_xFF08_未用_xFF09_">
	<g>
		<path fill="#2196F3" d="M54.1,46.954l1.4-2.087l-1-1.988l-0.9-1.093l-2.8,0.596L50,41.984L49,39.5h-3.2l-1,2.286l-1,0.596
			l-2.7-0.596l-1,1.193l-0.6,2.087l1.3,1.689v1.392l-1.2,2.187l1.4,2.683l2.6-0.397l0.9,0.497l1.3,2.385h3.5l0.7-2.087l1.4-0.695
			l2.1,0.597l1.8-2.981l-1.2-2.187V46.954z M54.1,50.333l-0.8,1.59l-2.1-0.398l-2,0.896l-1,1.987h-1.6l-1-1.889l-1.7-1.093l-2,0.199
			l-0.8-1.392l0.9-1.491v-2.385l-1.1-1.59l0.7-1.59l2.5,0.397l1.4-0.696l1-2.087h1.8l1,2.187l1.4,0.795l2.6-0.497l1,1.789
			L52.9,46.854v1.689L54.1,50.333z M47.5,44.469c-1.7,0-3,1.391-3,3.081s1.4,3.081,3,3.081c1.6,0,3-1.392,3-3.081
			S49.2,44.469,47.5,44.469z M47.5,49.438c-1,0-1.8-0.795-1.8-1.789c0-0.994,0.8-1.789,1.8-1.789s1.8,0.795,1.8,1.789
			C49.3,48.644,48.5,49.438,47.5,49.438z"/>
	</g>
</g>
</svg>
