<?xml version="1.0" encoding="iso-8859-1"?>
<!-- Generator: Adobe Illustrator 16.0.0, SVG Export Plug-In . SVG Version: 6.00 Build 0)  -->
<!DOCTYPE svg PUBLIC "-//W3C//DTD SVG 1.1//EN" "http://www.w3.org/Graphics/SVG/1.1/DTD/svg11.dtd">
<svg version="1.1" xmlns="http://www.w3.org/2000/svg" xmlns:xlink="http://www.w3.org/1999/xlink" x="0px" y="0px" width="9.749px"
	 height="9.749px" viewBox="0 0 9.749 9.749" style="enable-background:new 0 0 9.749 9.749;" xml:space="preserve">
<g id="Camera_on_1_" style="enable-background:new    ;">
	<g id="Camera_on">
		<g>
			<circle style="fill-rule:evenodd;clip-rule:evenodd;fill:#0C9AF2;" cx="4.875" cy="4.875" r="4.875"/>
		</g>
	</g>
</g>
<g id="&#x77E9;&#x5F62;_78_1_" style="enable-background:new    ;">
	<g id="&#x77E9;&#x5F62;_78">
		<g>
			<polygon style="fill-rule:evenodd;clip-rule:evenodd;fill:#FFFFFF;" points="6.755,5.25 6.755,4.5 6.005,4.5 6.005,3.75 
				5.255,3.75 5.255,3 4.5,3 4.494,3.75 3.75,3.75 3.744,4.5 3,4.5 2.996,5.25 2.25,5.25 2.245,5.999 3.271,5.999 3.271,5.25 
				4.021,5.25 4.021,4.5 4.771,4.5 4.771,3.75 4.979,3.75 4.979,4.5 5.729,4.5 5.729,5.25 6.479,5.25 6.479,5.999 7.504,5.999 
				7.504,5.25 			"/>
		</g>
	</g>
</g>
</svg>
