<?xml version="1.0" encoding="utf-8"?>
<!-- Generator: Adobe Illustrator 16.0.0, SVG Export Plug-In . SVG Version: 6.00 Build 0)  -->
<!DOCTYPE svg PUBLIC "-//W3C//DTD SVG 1.1//EN" "http://www.w3.org/Graphics/SVG/1.1/DTD/svg11.dtd">
<svg version="1.1" id="single_1_" xmlns="http://www.w3.org/2000/svg" xmlns:xlink="http://www.w3.org/1999/xlink" x="0px" y="0px"
	 width="22px" height="16px" viewBox="0 0 22 16" enable-background="new 0 0 22 16" xml:space="preserve">
<g id="nor" opacity="0.6314">
	<g>
		<path fill-rule="evenodd" clip-rule="evenodd" fill="#FFFFFF" d="M12,12.986V6h-1c0,0-0.594,0.938-2,0.969V8h2v4.986H12z
			 M21.028,10.998v1.185c0,1.326-1.658,2.86-2.748,2.86H3.97c-1.179,0.06-3.048-1.267-3.048-2.683V5.707
			c0.03-1.268,1.395-2.713,3.018-2.713h11.051l-0.008,1.993l3.913-1.982c-0.01-0.003-0.021-0.01-0.029-0.011h0.05l-0.021,0.011
			c0.03,0.01,0.063,0.024,0.093,0.033V2.455l0.003-0.002l-0.003-0.001V2.085c-0.245-0.062,0.191-0.101-0.065-0.11l-3.92-2.049
			l-0.009,2.041H3.919c-2.038,0-3.921,1.806-3.921,3.844v6.379c0,2.038,1.883,3.776,3.921,3.776h14.209
			c2.038,0,3.806-1.738,3.806-3.776v-1.191H21.028z"/>
	</g>
</g>
</svg>
