<?xml version="1.0" encoding="iso-8859-1"?>
<!-- Generator: Adobe Illustrator 16.0.0, SVG Export Plug-In . SVG Version: 6.00 Build 0)  -->
<!DOCTYPE svg PUBLIC "-//W3C//DTD SVG 1.1//EN" "http://www.w3.org/Graphics/SVG/1.1/DTD/svg11.dtd">
<svg version="1.1" id="_x32__1_" xmlns="http://www.w3.org/2000/svg" xmlns:xlink="http://www.w3.org/1999/xlink" x="0px" y="0px"
	 width="44px" height="44px" viewBox="0 0 44 44" style="enable-background:new 0 0 44 44;" xml:space="preserve">
<g id="_x32_">
	<g>
		<path style="fill-rule:evenodd;clip-rule:evenodd;fill:#FFFFFF;" d="M29.285,22.976c-0.045,0.032-7.727,3.567-7.727,3.567
			l-7.848-3.567c0.018,0.012-0.35-0.212-0.701-0.412c0,0.299-0.05,0.792,0.229,0.94l7.736,3.999c0.465,0.219,0.666,0.219,1.169,0
			l7.615-3.999c0.26-0.121,0.219-0.634,0.219-0.94C29.639,22.732,29.33,22.944,29.285,22.976z M29.285,26.076l-7.737,3.422
			l-7.838-3.422c0.018,0.012-0.35-0.212-0.701-0.413c0,0.3-0.05,0.793,0.229,0.941l7.736,3.744c0.465,0.22,0.666,0.22,1.169,0
			l7.615-3.744c0.26-0.121,0.219-0.635,0.219-0.941C29.639,25.833,29.295,26.074,29.285,26.076z M20.974,24.504
			c0.465,0.22,0.666,0.22,1.169,0l7.615-4.101c0.274-0.104,0.4-0.949,0-1.168l-7.615-4.052c-0.413-0.245-0.704-0.232-1.169,0
			l-7.736,4.052c-0.354,0.314-0.414,0.948,0,1.168L20.974,24.504z M21.538,15.968l7.564,3.852l-7.554,3.69l-7.733-3.69
			L21.538,15.968z"/>
	</g>
</g>
</svg>
