<?xml version="1.0" encoding="utf-8"?>
<!-- Generator: Adobe Illustrator 15.0.0, SVG Export Plug-In . SVG Version: 6.00 Build 0)  -->
<!DOCTYPE svg PUBLIC "-//W3C//DTD SVG 1.1//EN" "http://www.w3.org/Graphics/SVG/1.1/DTD/svg11.dtd">
<svg version="1.1" id="形状_258_1_" xmlns="http://www.w3.org/2000/svg" xmlns:xlink="http://www.w3.org/1999/xlink" x="0px"
	 y="0px" width="44px" height="44px" viewBox="0 0 44 44" enable-background="new 0 0 44 44" xml:space="preserve">
<g id="形状_258">
	<g>
		<path fill-rule="evenodd" clip-rule="evenodd" fill="#FFFFFF" d="M14.928,27.957c0,0-0.042-10.988,0.072-10.988c1.707,0,5,0,5,0
			v-1h-6L13.969,29.01l6.006-0.021l-0.005-1.022L14.928,27.957z M29.875,16h-6v1c0,0,3.293,0,5,0c0.113,0,0.072,10.988,0.072,10.988
			l-5.043,0.01L23.9,29.021l6.006,0.021L29.875,16z M17.016,20h9.953v-0.975h-9.953V20z M16.986,26.063h9.982v-0.996h-9.982V26.063z
			 M27,22.047h-9.984v0.922H27V22.047z"/>
	</g>
</g>
</svg>
