<?xml version="1.0" encoding="iso-8859-1"?>
<!-- Generator: Adobe Illustrator 16.0.0, SVG Export Plug-In . SVG Version: 6.00 Build 0)  -->
<!DOCTYPE svg PUBLIC "-//W3C//DTD SVG 1.1//EN" "http://www.w3.org/Graphics/SVG/1.1/DTD/svg11.dtd">
<svg version="1.1" id="&#x5706;&#x89D2;&#x77E9;&#x5F62;_6_1_"
	 xmlns="http://www.w3.org/2000/svg" xmlns:xlink="http://www.w3.org/1999/xlink" x="0px" y="0px" width="36px" height="36px"
	 viewBox="0 0 36 36" style="enable-background:new 0 0 36 36;" xml:space="preserve">
<g id="&#x5706;&#x89D2;&#x77E9;&#x5F62;_6">
	<g>
		<path style="fill-rule:evenodd;clip-rule:evenodd;fill:#767F8A;" d="M27.5,30h-19C8.224,30,8,30.224,8,30.5S8.224,31,8.5,31h19
			c0.276,0,0.5-0.224,0.5-0.5S27.776,30,27.5,30z M33,6H3C1.896,6,1,6.896,1,8v18c0,1.104,0.896,2,2,2h30c1.104,0,2-0.896,2-2V8
			C35,6.896,34.104,6,33,6z M34,26c0,0.553-0.447,1-1,1H3c-0.552,0-1-0.447-1-1V8c0-0.553,0.448-1,1-1h30c0.553,0,1,0.447,1,1V26z"
			/>
	</g>
</g>
</svg>
