<?xml version="1.0" encoding="utf-8"?>
<!-- Generator: Adobe Illustrator 16.0.0, SVG Export Plug-In . SVG Version: 6.00 Build 0)  -->
<!DOCTYPE svg PUBLIC "-//W3C//DTD SVG 1.1//EN" "http://www.w3.org/Graphics/SVG/1.1/DTD/svg11.dtd">
<svg version="1.1" id="down_1_" xmlns="http://www.w3.org/2000/svg" xmlns:xlink="http://www.w3.org/1999/xlink" x="0px" y="0px"
	 width="24px" height="16px" viewBox="0 0 24 16" enable-background="new 0 0 24 16" xml:space="preserve">
<path fill="#ACB0B5" d="M7.112,8.316C7.399,8.029,7.591,7.55,7.591,7.071s-0.096-0.863-0.383-1.15
	c-0.383-0.288-0.671-0.479-1.15-0.479c-0.192,0-0.383,0-0.671,0.096l0.096-0.862c0.096,0,0.096,0,0.192,0
	c0.383,0,0.767-0.096,1.054-0.383s0.479-0.479,0.479-0.958c0-0.383-0.096-0.67-0.383-0.958s-0.48-0.29-0.863-0.29
	S5.291,2.183,5.003,2.471C4.715,2.759,4.62,3.046,4.62,3.525L3.662,3.333C3.758,2.663,4.045,2.087,4.428,1.8
	c0.383-0.287,0.958-0.575,1.534-0.575c0.383,0,0.767,0.096,1.15,0.288C7.495,1.705,7.687,1.992,7.879,2.28
	C8.07,2.663,8.166,2.95,8.166,3.333S8.07,4.004,7.878,4.292C7.686,4.58,7.495,4.867,7.112,5.058
	c0.479,0.096,0.862,0.288,1.054,0.671c0.288,0.383,0.383,0.767,0.383,1.342c0,0.767-0.288,1.341-0.767,1.822
	c-0.479,0.479-1.053,0.767-1.82,0.767c-0.671,0-1.15-0.191-1.629-0.673C3.854,8.507,3.662,8.029,3.566,7.358l0.958-0.096
	C4.62,7.837,4.812,8.221,5.099,8.508c0.192,0.191,0.575,0.288,0.863,0.288C6.441,8.796,6.824,8.604,7.112,8.316z M14.203,8.221
	C14.012,8.7,13.725,8.988,13.34,9.275c-0.383,0.287-0.766,0.384-1.245,0.384c-0.767,0-1.438-0.287-1.917-0.959
	c-0.479-0.67-0.67-1.628-0.67-3.066c0-1.629,0.287-2.779,0.862-3.45c0.479-0.671,1.15-0.958,1.917-0.958
	c0.575,0,1.053,0.192,1.438,0.575c0.383,0.383,0.574,0.863,0.67,1.533L13.438,3.43c-0.098-0.383-0.191-0.671-0.385-0.863
	c-0.287-0.288-0.574-0.479-0.958-0.479c-0.288,0-0.575,0.096-0.767,0.288c-0.288,0.191-0.479,0.575-0.671,0.958
	C10.466,3.716,10.37,4.387,10.37,5.25c0.192-0.383,0.479-0.671,0.862-0.863C11.616,4.196,11.903,4.1,12.287,4.1
	c0.67,0,1.15,0.287,1.629,0.767c0.479,0.479,0.67,1.15,0.67,1.917C14.49,7.358,14.395,7.837,14.203,8.221z M13.533,6.879
	c0-0.575-0.096-1.054-0.385-1.342c-0.287-0.287-0.67-0.479-1.055-0.479c-0.383,0-0.767,0.192-1.054,0.479
	c-0.383,0.288-0.479,0.767-0.479,1.246c0,0.383,0.096,0.671,0.191,0.958c0.095,0.287,0.288,0.575,0.575,0.766
	c0.287,0.191,0.479,0.288,0.767,0.288c0.383,0,0.768-0.191,1.055-0.479C13.438,7.933,13.533,7.454,13.533,6.879z M16.215,8.796
	c-0.479-0.671-0.766-1.821-0.766-3.354c0-0.958,0.096-1.725,0.287-2.396c0.189-0.671,0.479-1.054,0.863-1.342
	c0.383-0.288,0.859-0.479,1.342-0.479c0.383,0,0.766,0.096,1.053,0.288c0.289,0.192,0.576,0.479,0.768,0.767
	c0.191,0.288,0.383,0.767,0.479,1.246c0.096,0.479,0.189,1.15,0.189,1.917c0,1.533-0.383,2.684-0.286,2.3
	c-0.19,0.575-0.479,1.054-0.86,1.341c-0.386,0.288-0.77,0.575-1.343,0.575C17.174,9.658,16.6,9.371,16.215,8.796z M16.408,5.441
	c0,1.342,0.191,2.204,0.479,2.684c0.287,0.479,0.67,0.671,1.055,0.671s0.768-0.192,1.055-0.671c0.289-0.479,0.479-1.342,0.479-2.684
	c0-1.341-0.189-2.3-0.479-2.683c-0.287-0.383-0.67-0.671-1.055-0.671c-0.479,0-0.768,0.191-1.055,0.575
	C16.6,3.142,16.408,4.1,16.408,5.441z M10.083,10.713c-0.191-0.191-0.383,0-0.383,0.191v1.629C4.524,12.246,1.266,11,1.266,10.041
	c0-0.383,0.67-0.861,1.821-1.342V7.742C1.553,8.316,0.5,9.083,0.5,10.137c0,2.014,4.312,3.163,9.2,3.451v1.629
	c0,0.191,0.288,0.287,0.383,0.191l2.013-2.108c0.096-0.096,0.096-0.288,0-0.384L10.083,10.713z M20.816,7.742V8.7
	c1.246,0.479,2.012,1.055,1.818,1.342c-0.285,0.862-3.258,2.205-8.625,2.492v0.959c4.982-0.288,9.488-1.438,9.488-3.451
	C23.5,9.083,22.445,8.316,20.816,7.742z"/>
</svg>
