<?xml version="1.0" encoding="utf-8"?>
<!-- Generator: Adobe Illustrator 15.0.0, SVG Export Plug-In . SVG Version: 6.00 Build 0)  -->
<!DOCTYPE svg PUBLIC "-//W3C//DTD SVG 1.1//EN" "http://www.w3.org/Graphics/SVG/1.1/DTD/svg11.dtd">
<svg version="1.1" id="sound_icon_1_" xmlns="http://www.w3.org/2000/svg" xmlns:xlink="http://www.w3.org/1999/xlink" x="0px"
	 y="0px" width="17.998px" height="16.998px" viewBox="0 0 17.998 16.998" enable-background="new 0 0 17.998 16.998"
	 xml:space="preserve">
<g id="sound_icon">
	<g>
		<path fill-rule="evenodd" clip-rule="evenodd" fill="#ACB0B5" d="M0.01,6.018v4.983h3.167l4.815,3.511V2.467L3.179,6.009
			L0.01,6.018z M6.999,4.955v7.013l-3.045-1.955H0.996V6.954H3.97L6.999,4.955z M10.464,5.041L9.83,6.333
			c0.606,0.519,0.99,1.29,0.99,2.151c0,0.947-0.215,1.806-0.931,2.32l0.612,1.093c0.936-0.839,1.524-2.057,1.524-3.412
			C12.026,7.112,11.421,5.88,10.464,5.041z M12.676,2.727l-0.794,1.141c1.178,1.184,1.926,2.816,1.926,4.619
			c0,1.839-0.777,3.5-1.998,4.688l0.825,1.096c1.474-1.507,2.363-3.51,2.363-5.784C14.998,6.253,14.103,4.225,12.676,2.727z
			 M14.946,0.517l-0.891,1.082c1.662,1.815,2.715,4.233,2.715,6.888c0,2.651-1.05,5.065-2.708,6.88l0.891,1.104
			c1.896-2.136,3.044-4.896,3.044-7.984C17.997,5.405,16.835,2.65,14.946,0.517z"/>
	</g>
</g>
</svg>
