<?xml version="1.0" encoding="utf-8"?>
<!-- Generator: Adobe Illustrator 16.0.0, SVG Export Plug-In . SVG Version: 6.00 Build 0)  -->
<!DOCTYPE svg PUBLIC "-//W3C//DTD SVG 1.1//EN" "http://www.w3.org/Graphics/SVG/1.1/DTD/svg11.dtd">
<svg version="1.1" id="图层_1" xmlns="http://www.w3.org/2000/svg" xmlns:xlink="http://www.w3.org/1999/xlink" x="0px" y="0px"
	 width="208px" height="80px" viewBox="0 0 208 80" enable-background="new 0 0 208 80" xml:space="preserve">
<rect width="208" height="80"/>
<text transform="matrix(1.192488e-008 -1 1 1.192488e-008 40.498 77.9512)" fill="#FFFFFF" font-family="'ArialMT'" font-size="4.72">TM</text>
<g>
	<path fill="#FFFFFF" d="M84.936,21.943h-1.793v-8.506h5.47v1.425h-3.677v2.023h3.447v1.425h-3.447V21.943z"/>
	<path fill="#FFFFFF" d="M91.418,13.437v8.506H89.58v-8.506H91.418z"/>
	<path fill="#FFFFFF" d="M94.729,21.943h-1.793v-8.506h5.469v1.425h-3.676v2.023h3.447v1.425h-3.447V21.943L94.729,21.943z"/>
	<path fill="#FFFFFF" d="M100.521,21.943h-1.748l3.08-8.506h2.161l2.987,8.506h-1.839l-0.642-1.794h-3.356L100.521,21.943z
		 M101.623,18.725h2.436l-1.148-3.632h-0.046L101.623,18.725z"/>
	<path fill="#FFFFFF" d="M113.667,19.828l1.655-6.391h2.067l1.471,6.391h0.048l1.379-6.391h1.7l-2.161,8.506h-2.021l-1.517-6.482
		l-1.655,6.482h-2.07l-2.067-8.506h1.885L113.667,19.828z"/>
	<path fill="#FFFFFF" d="M126.722,22.033c-2.665-0.062-4.03-1.5-4.09-4.32c0.06-2.879,1.426-4.369,4.09-4.459
		c2.605,0.091,3.952,1.58,4.045,4.459C130.674,20.533,129.326,21.972,126.722,22.033z M126.722,14.586
		c-1.471,0-2.19,1.042-2.159,3.127c-0.031,2.083,0.688,3.109,2.159,3.079c1.41,0,2.115-1.026,2.115-3.079
		C128.836,15.629,128.132,14.586,126.722,14.586z"/>
	<path fill="#FFFFFF" d="M133.8,18.54v3.402h-1.837v-8.505h3.631c1.93,0.062,2.91,0.798,2.94,2.207
		c-0.03,1.103-0.613,1.793-1.746,2.07v0.045c0.827,0.092,1.333,0.721,1.517,1.886c0,0.09,0.016,0.184,0.047,0.275
		c0.061,1.041,0.213,1.718,0.458,2.024h-1.974c-0.186-0.737-0.294-1.502-0.323-2.299c-0.093-0.736-0.353-1.104-0.782-1.104
		L133.8,18.54L133.8,18.54z M133.8,14.862v2.253h1.518c0.829,0,1.258-0.397,1.288-1.197c-0.03-0.704-0.459-1.057-1.288-1.057
		L133.8,14.862L133.8,14.862z"/>
	<path fill="#FFFFFF" d="M145.383,21.943h-5.469v-8.506h1.792v7.079h3.677V21.943z"/>
	<path fill="#FFFFFF" d="M146.394,21.943v-8.506h2.898c2.818,0.031,4.243,1.457,4.274,4.276c-0.031,2.819-1.456,4.23-4.274,4.23
		H146.394z M148.189,14.862v5.655h0.963c1.686,0.063,2.514-0.872,2.483-2.803c0.03-1.931-0.799-2.879-2.483-2.852H148.189z"/>
	<path fill="#FFFFFF" d="M164.874,16.196h-1.931c-0.063-1.012-0.611-1.547-1.654-1.61c-1.011,0.063-1.548,1.104-1.609,3.127
		c0.062,2.021,0.599,3.049,1.609,3.079c1.042-0.03,1.591-0.568,1.654-1.608h1.931c-0.123,1.869-1.317,2.818-3.585,2.849
		c-2.298-0.062-3.478-1.5-3.539-4.32c0.062-2.879,1.241-4.369,3.539-4.459C163.557,13.316,164.75,14.295,164.874,16.196z"/>
	<path fill="#FFFFFF" d="M171.585,13.437h1.841v5.332c-0.094,2.115-1.32,3.202-3.68,3.264c-2.42-0.062-3.661-1.149-3.723-3.264
		v-5.332h1.838v4.642c-0.122,1.901,0.508,2.805,1.886,2.712c1.317,0.092,1.93-0.812,1.839-2.712L171.585,13.437L171.585,13.437z"/>
	<path fill="#FFFFFF" d="M176.872,21.943h-1.793v-8.506h2.621c2.298-0.029,3.446,0.843,3.446,2.62
		c-0.062,1.656-1.04,2.529-2.94,2.621h-1.333L176.872,21.943L176.872,21.943z M176.872,14.862v2.391
		c0.092,0,0.274,0.017,0.552,0.045c1.225,0.124,1.82-0.291,1.793-1.24c0-0.828-0.6-1.224-1.793-1.196
		C177.146,14.894,176.964,14.894,176.872,14.862z"/>
</g>
<g>
	<path fill="#A61914" d="M31.521,19.624c0,0,5.023-1.597,5.023-6.05c0,0,0.84,1.68,1.092,3.025c0,0,0.587,7.059-0.672,8.74
		C36.964,25.338,36.073,21.642,31.521,19.624z"/>
	<path fill="#FBFAED" d="M35.944,18.922c0,0,0.379,0.525-0.099,0.958c0,0,0.508-0.35,0.969,0.108c0,0-0.36-0.5,0.095-0.966
		C36.908,19.023,36.395,19.398,35.944,18.922z"/>
	<g>
		
			<radialGradient id="SVGID_1_" cx="217.4219" cy="-278.9946" r="31.475" gradientTransform="matrix(1 0 0 -1.0006 -197.6602 -239.1147)" gradientUnits="userSpaceOnUse">
			<stop  offset="0" style="stop-color:#D6C198"/>
			<stop  offset="0.399" style="stop-color:#E9C787"/>
			<stop  offset="0.6552" style="stop-color:#FBFAED;stop-opacity:0.97"/>
			<stop  offset="0.9852" style="stop-color:#E9C787"/>
		</radialGradient>
		<path fill="url(#SVGID_1_)" d="M4.967,44.945c0,0,5.011-5.347-2.504-16.375c0,0-7.25-14.539,4.141-23.562
			c0,0,13.562-12.032,28.092,1.336c0,0,9.353,9.525,1.503,24.064c0,0-5.01,10.027-6.847,12.198c0,0-3.339,4.512,0,8.021
			c0,0-1.392,0.703-2.896-0.928c0,0,0,0.815,1.17,2.878c0,0,3.506,6.127,4.175,9.135c0,0,4.119,10.192,0.558,14.873
			c0,0-3.563,5.014-17.704,2.953c0,0-8.513-1.447-7.794-7.074c0,0,1.698-10.472,2.617-12.98c0,0,1.587-7.018,1.251-9.107
			c0,0-3.34,0-3.841-0.168c0,0,3.174-2.756,2.757-5.262C9.644,44.945,6.054,45.699,4.967,44.945z"/>
		<path fill="#BD1112" d="M8.501,70.532c0,0,10.351-0.501,13.316-9.022c0,0,1.214,1.087-1.292,6.353c0,0-5.428,7.686-12.024,5.178
			L8.501,70.532L8.501,70.532z"/>
		<path fill="#C91A1D" d="M8.501,68.863c0,0,3.757,0.919,2.755-10.529C11.256,58.334,9.836,67.778,8.501,68.863z"/>
		<path fill="#A61914" d="M16.851,14.888c0,0,0.668,3.76,0,10.361c0,0,2.589-3.926,8.936-5.18
			C25.786,20.069,19.774,17.646,16.851,14.888z"/>
		<path fill="#A61914" d="M6.328,7.786c0,0,3.592-0.836,7.767,2.423c0,0-0.167-6.852,2.755-7.855
			C16.851,2.354,10.254,2.689,6.328,7.786z"/>
		<path fill="#221714" d="M23.683,43.415c0,0-5.705-0.239-6.107-8.521c0,0-0.883-6.834,7.393-10.372c0,0,8.439-3.539,10.527,2.493
			c0,0,0.427,2.462-2.101,7.412c0,0-5.263,8.799-7.06,8.88c0,0,0.015-0.154,0.192-1.685c0,0,0.506-2.679-2.065-2.412
			C24.461,39.208,21.62,39.69,23.683,43.415z"/>
		<path fill="#221714" d="M8.14,10.608c0,0,4.593-1.503,6.932,6.267c0,0,1.336,8.772-2.422,11.865c0,0-4.008,5.096-8.016-0.836
			c0,0-3.09-3.427-1.335-12.281C3.298,15.623,4.55,11.192,8.14,10.608z"/>
		<path fill="#221714" d="M17.549,10.49c0,0-2.394-5.982,3.62-6.984c0,0,5.678-2.005,12.526,5.014c0,0,5.343,5.43,0.5,8.689
			c0,0-4.259,2.925-10.857-0.918c0,0-3.813-2.126-5.79-5.532"/>
		
			<linearGradient id="SVGID_2_" gradientUnits="userSpaceOnUse" x1="201.1689" y1="-260.3115" x2="210.1713" y2="-257.0349" gradientTransform="matrix(1 0 0 -1 -197.6602 -238.96)">
			<stop  offset="0" style="stop-color:#003F8D"/>
			<stop  offset="0.9852" style="stop-color:#4E92C6;stop-opacity:0.97"/>
		</linearGradient>
		<path fill="url(#SVGID_2_)" d="M8.038,12.557c0,0-4.761-0.167-4.51,7.352c0,0,0.251,7.352,5.428,6.769
			c0,0,5.177-0.585,2.755-10.78C11.711,15.898,10.71,12.39,8.038,12.557z"/>
		
			<linearGradient id="SVGID_3_" gradientUnits="userSpaceOnUse" x1="226.8154" y1="-244.5112" x2="222.4732" y2="-252.0323" gradientTransform="matrix(1 0 0 -1 -197.6602 -238.96)">
			<stop  offset="0" style="stop-color:#003F8D"/>
			<stop  offset="0.9852" style="stop-color:#4E92C6;stop-opacity:0.97"/>
		</linearGradient>
		<path fill="url(#SVGID_3_)" d="M23.987,12.551c0,0-5.846-3.838-3.006-7.097c0,0,2.254-3.091,9.019,0.585
			c0,0,5.512,4.261,2.923,7.269C32.922,13.308,30.667,16.973,23.987,12.551z"/>
		
			<linearGradient id="SVGID_4_" gradientUnits="userSpaceOnUse" x1="224.1865" y1="-275.5781" x2="224.1865" y2="-263.894" gradientTransform="matrix(1 0 0 -1 -197.6602 -238.96)">
			<stop  offset="0" style="stop-color:#003F8D"/>
			<stop  offset="0.9852" style="stop-color:#4E92C6;stop-opacity:0.97"/>
		</linearGradient>
		<path fill="url(#SVGID_4_)" d="M22.741,27.31c0,0,4.19-3.896,9.965-1.709c0,0,4.564,3.325-2.42,8.457c0,0-4.175,3.373-9.128,2.376
			C21.158,36.433,15.103,33.297,22.741,27.31z"/>
		<path fill="#FBFAED" d="M5.671,21.842c0,0,1.821,0.703,1.331,2.571c0,0,0.707-1.707,2.619-1.306c0,0-1.729-0.667-1.351-2.582
			C8.269,20.525,7.593,22.303,5.671,21.842z"/>
		<path fill="#FBFAED" d="M26.675,10.958c0,0,1.372,0.529,1.003,1.937c0,0,0.532-1.285,1.971-0.985c0,0-1.301-0.501-1.018-1.943
			C28.633,9.967,28.123,11.306,26.675,10.958z"/>
		<path fill="#FBFAED" d="M6.758,16.836c0,0,1.118-0.081,1.319,1.01c0,0-0.049-1.06,1.042-1.319c0,0-1.063,0.078-1.333-1.011
			C7.787,15.517,7.869,16.605,6.758,16.836z"/>
		<path fill="#FBFAED" d="M22.791,9.64c0,0,1.119-0.08,1.319,1.01c0,0-0.05-1.059,1.042-1.317c0,0-1.063,0.076-1.333-1.012
			C23.819,8.321,23.902,9.41,22.791,9.64z"/>
		<path fill="#FBFAED" d="M5.146,19.324c0,0,0.497-0.035,0.586,0.45c0,0-0.021-0.471,0.463-0.586c0,0-0.47,0.033-0.592-0.449
			C5.604,18.739,5.64,19.222,5.146,19.324z"/>
		<path fill="#FBFAED" d="M27.189,7.873c0,0,0.496-0.036,0.586,0.448c0,0-0.022-0.47,0.463-0.586c0,0-0.472,0.035-0.592-0.449
			C27.647,7.286,27.683,7.771,27.189,7.873z"/>
		<path fill="#FBFAED" d="M9.03,18.939c0,0,0.498-0.037,0.585,0.449c0,0-0.021-0.472,0.465-0.588c0,0-0.472,0.036-0.591-0.449
			C9.489,18.352,9.525,18.837,9.03,18.939z"/>
		<g>
			<path fill="#FBFAED" d="M29.741,29.354c0,0-0.496,1.301-1.902,0.962c0,0,1.333,0.515,0.973,1.882c0,0,0.518-1.25,1.918-0.956
				C30.73,31.244,29.463,30.754,29.741,29.354z"/>
			<path fill="#FBFAED" d="M24.692,32.176c0,0-0.409,1.072-1.568,0.793c0,0,1.099,0.423,0.803,1.553c0,0,0.425-1.031,1.582-0.789
				C25.508,33.734,24.464,33.332,24.692,32.176z"/>
			<path fill="#FBFAED" d="M28.3,28.969c0,0-0.021-0.471,0.464-0.586c0,0-0.473,0.034-0.594-0.45c0,0,0.039,0.485-0.456,0.587
				C27.715,28.52,28.211,28.485,28.3,28.969z"/>
			<path fill="#FBFAED" d="M25.084,29.74c0,0,0.038,0.485-0.457,0.587c0,0,0.498-0.036,0.587,0.448c0,0-0.023-0.47,0.462-0.585
				C25.676,30.19,25.206,30.224,25.084,29.74z"/>
		</g>
		<path fill="#A61914" d="M15.682,48.338c-1.792,0.952-2.45,1.895-2.45,1.895c-0.558,1.615-0.279,8.522-0.279,8.522
			c-0.111,2.95,1.447,3.62,1.447,3.62c-0.055-0.614,1.336-2.73,1.336-2.73c2.783-1.562,2.228,2.396,2.228,2.396
			c-1.169,1.059-1.169,1.782-1.169,1.782c3.007,0.334,4.454-3.677,4.454-3.677C24.032,57.248,15.682,48.338,15.682,48.338z
			 M17.33,57.956c-0.091-1.762-1.856-1.866-1.856-1.866c1.784-0.133,1.877-1.867,1.877-1.867c0.2,1.77,1.876,1.867,1.876,1.867
			C17.467,56.273,17.33,57.956,17.33,57.956z"/>
		<path fill="#FBFAED" d="M11.801,5.48c0,0,0.376,0.521-0.098,0.954c0,0,0.505-0.349,0.963,0.105c0,0-0.358-0.496,0.094-0.96
			C12.759,5.58,12.25,5.953,11.801,5.48z"/>
		<path fill="#C91A1D" d="M14.699,11.479c0,0,0.377,0.521-0.1,0.954c0,0,0.506-0.348,0.965,0.107c0,0-0.359-0.497,0.094-0.962
			C15.658,11.577,15.147,11.952,14.699,11.479z"/>
		<path fill="#C91A1D" d="M15.791,12.921c0,0,0.25,0.346-0.065,0.632c0,0,0.335-0.231,0.639,0.071c0,0-0.239-0.329,0.061-0.637
			C16.425,12.986,16.087,13.235,15.791,12.921z"/>
		<path fill="#C91A1D" d="M29.962,19.834c0,0-0.643,0.053-0.764-0.578c0,0,0.036,0.613-0.59,0.769c0,0,0.609-0.049,0.772,0.579
			C29.379,20.604,29.325,19.974,29.962,19.834z"/>
		<path fill="#C91A1D" d="M28.163,20.022c0,0-0.425,0.037-0.506-0.381c0,0,0.024,0.407-0.391,0.51c0,0,0.404-0.033,0.512,0.383
			C27.777,20.534,27.741,20.116,28.163,20.022z"/>
		<path fill="#C91A1D" d="M15.005,29.048c0,0,0.348-0.543,0.923-0.259c0,0-0.511-0.343-0.256-0.935c0,0-0.327,0.515-0.927,0.264
			C14.746,28.119,15.279,28.458,15.005,29.048z"/>
		<path fill="#C91A1D" d="M15.945,27.502c0,0,0.229-0.36,0.61-0.172c0,0-0.336-0.227-0.169-0.619c0,0-0.218,0.342-0.614,0.177
			C15.772,26.887,16.128,27.111,15.945,27.502z"/>
		<path fill="#A61914" d="M24.2,65.352c-0.084-3.926-0.752-2.253-0.752-2.253c0.084,4.178-4.128,8.771-4.128,8.771
			c-2.876,3.929-10.818,3.51-10.818,3.51c7.181,5.85,13.316,0.419,13.316,0.419C25.114,73.04,24.2,65.352,24.2,65.352z
			 M16.39,77.833c-0.073-1.426-1.499-1.507-1.499-1.507c1.441-0.108,1.516-1.51,1.516-1.51c0.164,1.427,1.517,1.51,1.517,1.51
			C16.502,76.473,16.39,77.833,16.39,77.833z M20.288,75.427c-0.052-0.993-1.048-1.052-1.048-1.052
			c1.007-0.077,1.061-1.054,1.061-1.054c0.113,0.998,1.061,1.054,1.061,1.054C20.366,74.478,20.288,75.427,20.288,75.427z
			 M22.102,72.479c-0.037-0.735-0.772-0.778-0.772-0.778c0.743-0.056,0.782-0.775,0.782-0.775c0.083,0.733,0.781,0.775,0.781,0.775
			C22.16,71.775,22.102,72.479,22.102,72.479z"/>
		<path fill="#A61914" d="M29.377,62.151c-2.784-9.692-8.908-15.597-8.908-15.597c-8.795-10.248-6.234-16.599-6.234-16.599
			c-3.785,3.565-9.13,1.449-9.13,1.449c4.899,6.126,2.005,12.586,2.005,12.586c3.004,0.78,4.118-2.896,4.118-2.896
			c2.451,5.683-1.225,7.799-1.225,7.799c5.233-0.557,5.457-3.565,5.457-3.565c3.007,2.338,7.014,9.58,7.014,9.58
			c3.562,5.236,3.34,14.036,3.34,14.036c1.114,8.021-5.345,9.582-5.345,9.582c2.896,0.224,7.127-0.894,7.127-0.894
			C34.945,74.962,29.377,62.151,29.377,62.151z M10.32,37.291c0.207-0.583-0.354-0.852-0.354-0.852
			c0.597,0.194,0.858-0.355,0.858-0.355c-0.171,0.6,0.36,0.855,0.36,0.855C10.588,36.764,10.32,37.291,10.32,37.291z M11.283,35.428
			c0.355-1.005-0.607-1.469-0.607-1.469c1.027,0.335,1.477-0.612,1.477-0.612c-0.294,1.035,0.621,1.477,0.621,1.477
			C11.746,34.521,11.283,35.428,11.283,35.428z M29.108,66.751c-0.732,0.075-0.79,0.776-0.79,0.776
			c-0.037-0.734-0.774-0.776-0.774-0.776c0.744-0.056,0.782-0.777,0.782-0.777C28.412,66.708,29.108,66.751,29.108,66.751z
			 M27.682,63.842c0.048,0.422,0.448,0.445,0.448,0.445c-0.421,0.043-0.453,0.443-0.453,0.443c-0.022-0.42-0.442-0.443-0.442-0.443
			C27.661,64.257,27.682,63.842,27.682,63.842z M27.666,75.933c-0.076-1.424-1.501-1.507-1.501-1.507
			c1.442-0.11,1.518-1.51,1.518-1.51c0.162,1.429,1.516,1.51,1.516,1.51C27.775,74.572,27.666,75.933,27.666,75.933z M28.729,71.629
			c-0.051-0.994-1.047-1.052-1.047-1.052c1.007-0.075,1.059-1.055,1.059-1.055c0.113,1.001,1.06,1.055,1.06,1.055
			C28.806,70.683,28.729,71.629,28.729,71.629z"/>
	</g>
	<path fill="#C91A1D" d="M32.243,19.899c0,0,4.692-1.491,4.692-5.652c0,0,0.784,1.57,1.021,2.826c0,0,0.549,6.593-0.628,8.164
		C37.327,25.237,36.495,21.782,32.243,19.899z"/>
	<path fill="#FBFAED" d="M36.373,19.244c0,0,0.356,0.491-0.092,0.896c0,0,0.475-0.327,0.905,0.099c0,0-0.336-0.466,0.087-0.901
		C37.275,19.337,36.795,19.688,36.373,19.244z"/>
</g>
<g enable-background="new    ">
	<path fill="#1B5AAB" d="M96.265,61.102h1.952l0.95,3.103l0.984-3.103h1.894l-2.08,4.896h-1.664L96.265,61.102z"/>
	<path fill="#1B5AAB" d="M102.653,59.239h1.876v1.277h-1.876V59.239z M102.653,61.102h1.876v4.896h-1.876V61.102z"/>
	<path fill="#1B5AAB" d="M110.882,59.239v6.758h-1.757v-0.724c-0.246,0.308-0.47,0.515-0.673,0.622
		c-0.271,0.142-0.571,0.212-0.903,0.212c-0.667,0-1.176-0.253-1.528-0.761c-0.352-0.507-0.527-1.123-0.527-1.848
		c0-0.812,0.194-1.433,0.583-1.862c0.389-0.431,0.883-0.646,1.481-0.646c0.292,0,0.558,0.049,0.796,0.147
		c0.237,0.099,0.449,0.246,0.634,0.442v-2.342H110.882z M109.001,63.536c0-0.385-0.082-0.671-0.244-0.86
		c-0.163-0.188-0.369-0.283-0.618-0.283c-0.218,0-0.401,0.091-0.549,0.271c-0.147,0.182-0.221,0.486-0.221,0.913
		c0,0.399,0.076,0.692,0.229,0.878c0.151,0.187,0.34,0.279,0.564,0.279c0.239,0,0.439-0.094,0.599-0.281
		C108.921,64.266,109.001,63.96,109.001,63.536z"/>
	<path fill="#1B5AAB" d="M117.458,64.015h-3.761c0.034,0.302,0.115,0.525,0.244,0.674c0.182,0.212,0.418,0.317,0.71,0.317
		c0.185,0,0.359-0.046,0.525-0.138c0.102-0.059,0.211-0.162,0.327-0.31l1.849,0.171c-0.283,0.491-0.624,0.845-1.023,1.058
		c-0.399,0.214-0.973,0.32-1.719,0.32c-0.648,0-1.159-0.091-1.531-0.274c-0.371-0.183-0.68-0.473-0.924-0.871
		c-0.244-0.397-0.366-0.865-0.366-1.403c0-0.765,0.245-1.384,0.735-1.857s1.167-0.71,2.03-0.71c0.7,0,1.254,0.106,1.659,0.318
		s0.715,0.52,0.927,0.922s0.317,0.926,0.317,1.571V64.015z M115.55,63.116c-0.036-0.362-0.134-0.622-0.292-0.779
		c-0.158-0.156-0.367-0.234-0.625-0.234c-0.298,0-0.536,0.118-0.715,0.354c-0.113,0.147-0.186,0.367-0.216,0.659H115.55z"/>
	<path fill="#1B5AAB" d="M118.091,63.563c0-0.747,0.252-1.362,0.756-1.847c0.504-0.483,1.185-0.726,2.042-0.726
		c0.979,0,1.721,0.284,2.222,0.853c0.402,0.458,0.604,1.022,0.604,1.692c0,0.752-0.25,1.369-0.749,1.851
		c-0.499,0.48-1.19,0.721-2.072,0.721c-0.786,0-1.423-0.199-1.908-0.599C118.389,65.014,118.091,64.365,118.091,63.563z
		 M119.971,63.559c0,0.437,0.089,0.759,0.266,0.968s0.398,0.313,0.666,0.313c0.271,0,0.492-0.103,0.666-0.309
		s0.261-0.536,0.261-0.991c0-0.424-0.088-0.739-0.264-0.947c-0.175-0.207-0.392-0.311-0.649-0.311c-0.273,0-0.499,0.104-0.678,0.315
		C120.061,62.809,119.971,63.129,119.971,63.559z"/>
	<path fill="#1B5AAB" d="M133.199,64.015h-3.761c0.034,0.302,0.115,0.525,0.244,0.674c0.182,0.212,0.418,0.317,0.71,0.317
		c0.185,0,0.359-0.046,0.525-0.138c0.102-0.059,0.211-0.162,0.327-0.31l1.849,0.171c-0.283,0.491-0.624,0.845-1.023,1.058
		c-0.399,0.214-0.973,0.32-1.719,0.32c-0.648,0-1.159-0.091-1.531-0.274c-0.371-0.183-0.68-0.473-0.924-0.871
		c-0.244-0.397-0.366-0.865-0.366-1.403c0-0.765,0.245-1.384,0.735-1.857s1.167-0.71,2.03-0.71c0.7,0,1.254,0.106,1.659,0.318
		s0.715,0.52,0.927,0.922s0.317,0.926,0.317,1.571V64.015z M131.291,63.116c-0.036-0.362-0.134-0.622-0.292-0.779
		c-0.158-0.156-0.367-0.234-0.625-0.234c-0.298,0-0.536,0.118-0.715,0.354c-0.113,0.147-0.186,0.367-0.216,0.659H131.291z"/>
	<path fill="#1B5AAB" d="M133.398,61.102h2.227l0.776,1.364l0.906-1.364h2.069l-1.67,2.333l1.79,2.563h-2.189l-0.906-1.576
		l-1.063,1.576h-2.032l1.777-2.563L133.398,61.102z"/>
	<path fill="#1B5AAB" d="M140.123,67.859v-6.758h1.756v0.724c0.243-0.304,0.466-0.51,0.669-0.617
		c0.273-0.145,0.576-0.217,0.908-0.217c0.654,0,1.16,0.251,1.519,0.751c0.357,0.501,0.537,1.12,0.537,1.858
		c0,0.813-0.195,1.436-0.586,1.864c-0.39,0.429-0.883,0.643-1.479,0.643c-0.289,0-0.553-0.049-0.79-0.147
		c-0.238-0.098-0.451-0.244-0.639-0.438v2.337H140.123z M142.004,63.563c0,0.387,0.081,0.675,0.244,0.861
		c0.163,0.188,0.369,0.281,0.617,0.281c0.219,0,0.401-0.09,0.549-0.27s0.222-0.484,0.222-0.915c0-0.396-0.077-0.688-0.23-0.873
		c-0.154-0.186-0.342-0.279-0.563-0.279c-0.24,0-0.439,0.094-0.6,0.281C142.084,62.838,142.004,63.143,142.004,63.563z"/>
	<path fill="#1B5AAB" d="M146.429,61.102h1.757v0.803c0.169-0.348,0.343-0.587,0.523-0.717c0.18-0.131,0.401-0.196,0.666-0.196
		c0.276,0,0.579,0.086,0.907,0.258l-0.58,1.337c-0.222-0.092-0.396-0.138-0.525-0.138c-0.246,0-0.437,0.101-0.572,0.304
		c-0.193,0.286-0.29,0.82-0.29,1.604v1.641h-1.886V61.102z"/>
	<path fill="#1B5AAB" d="M156.187,64.015h-3.761c0.034,0.302,0.115,0.525,0.244,0.674c0.182,0.212,0.418,0.317,0.71,0.317
		c0.185,0,0.359-0.046,0.525-0.138c0.102-0.059,0.211-0.162,0.327-0.31l1.849,0.171c-0.283,0.491-0.624,0.845-1.023,1.058
		c-0.399,0.214-0.973,0.32-1.719,0.32c-0.648,0-1.159-0.091-1.531-0.274c-0.371-0.183-0.68-0.473-0.924-0.871
		c-0.244-0.397-0.366-0.865-0.366-1.403c0-0.765,0.245-1.384,0.735-1.857s1.167-0.71,2.03-0.71c0.7,0,1.254,0.106,1.659,0.318
		s0.715,0.52,0.927,0.922s0.317,0.926,0.317,1.571V64.015z M154.278,63.116c-0.036-0.362-0.134-0.622-0.292-0.779
		c-0.158-0.156-0.367-0.234-0.625-0.234c-0.298,0-0.536,0.118-0.715,0.354c-0.113,0.147-0.186,0.367-0.216,0.659H154.278z"/>
	<path fill="#1B5AAB" d="M156.718,64.638l1.862-0.176c0.076,0.222,0.184,0.38,0.322,0.475c0.139,0.096,0.322,0.144,0.553,0.144
		c0.252,0,0.447-0.054,0.586-0.161c0.107-0.08,0.161-0.18,0.161-0.3c0-0.135-0.07-0.239-0.212-0.313
		c-0.102-0.052-0.37-0.116-0.807-0.193c-0.651-0.113-1.104-0.219-1.357-0.315c-0.254-0.097-0.467-0.26-0.641-0.49
		s-0.261-0.493-0.261-0.787c0-0.323,0.094-0.601,0.281-0.834s0.445-0.407,0.774-0.522s0.77-0.173,1.323-0.173
		c0.583,0,1.015,0.045,1.293,0.134c0.277,0.089,0.51,0.228,0.695,0.415c0.187,0.188,0.341,0.44,0.464,0.761l-1.779,0.175
		c-0.046-0.157-0.123-0.272-0.23-0.346c-0.147-0.099-0.326-0.147-0.535-0.147c-0.212,0-0.366,0.037-0.463,0.112
		s-0.146,0.167-0.146,0.274c0,0.119,0.062,0.21,0.185,0.271s0.391,0.116,0.802,0.165c0.624,0.071,1.088,0.169,1.393,0.295
		c0.304,0.126,0.537,0.306,0.698,0.539s0.242,0.489,0.242,0.769c0,0.283-0.086,0.558-0.256,0.824
		c-0.171,0.268-0.439,0.48-0.807,0.638c-0.367,0.158-0.868,0.237-1.501,0.237c-0.894,0-1.531-0.127-1.91-0.382
		C157.068,65.47,156.825,65.107,156.718,64.638z"/>
	<path fill="#1B5AAB" d="M162.483,64.638l1.862-0.176c0.076,0.222,0.184,0.38,0.322,0.475c0.139,0.096,0.322,0.144,0.553,0.144
		c0.252,0,0.447-0.054,0.586-0.161c0.107-0.08,0.161-0.18,0.161-0.3c0-0.135-0.07-0.239-0.212-0.313
		c-0.102-0.052-0.37-0.116-0.807-0.193c-0.651-0.113-1.104-0.219-1.357-0.315c-0.254-0.097-0.467-0.26-0.641-0.49
		s-0.261-0.493-0.261-0.787c0-0.323,0.094-0.601,0.281-0.834s0.445-0.407,0.774-0.522s0.77-0.173,1.323-0.173
		c0.583,0,1.015,0.045,1.293,0.134c0.277,0.089,0.51,0.228,0.695,0.415c0.187,0.188,0.341,0.44,0.464,0.761l-1.779,0.175
		c-0.046-0.157-0.123-0.272-0.23-0.346c-0.147-0.099-0.326-0.147-0.535-0.147c-0.212,0-0.366,0.037-0.463,0.112
		s-0.146,0.167-0.146,0.274c0,0.119,0.062,0.21,0.185,0.271s0.391,0.116,0.802,0.165c0.624,0.071,1.088,0.169,1.393,0.295
		c0.304,0.126,0.537,0.306,0.698,0.539s0.242,0.489,0.242,0.769c0,0.283-0.086,0.558-0.256,0.824
		c-0.171,0.268-0.439,0.48-0.807,0.638c-0.367,0.158-0.868,0.237-1.501,0.237c-0.894,0-1.531-0.127-1.91-0.382
		C162.834,65.47,162.591,65.107,162.483,64.638z"/>
</g>
<rect x="61.683" y="63.086" fill="#1B5AAB" width="32" height="0.787"/>
<rect x="170.629" y="63.086" fill="#1B5AAB" width="32" height="0.787"/>
<g>
	<path fill="#EB221D" d="M56.67,48.6V32.244c0,0,10.009,0,12.985,0c1.953,0,7.491,6.213-2.025,10.119l5.091,6.238h-3.909
		l-3.036-3.709c0,0-1.557-2.309-4.215,0.166v-2.188c0,0,10.455-5.736,5.228-8.941h-6.747v14.671H56.67V48.6z"/>
	<path fill="#E9201B" d="M78.886,32.244c0,0-2.392,11.309-0.678,13.164c2.294,2.484,4.786,2.9,7.529,0.156
		c2.355-2.354-0.628-13.32-0.628-13.32h2.53c0,0,2.815,9.377,0.905,14.334c0,0-5.325,6.551-11.805,1.461
		c0,0-2.922-2.459-2.193-8.713l1.527-7.082H78.886z"/>
	<path fill="#D52A2E" d="M103.215,34.436c0,0-6.851-2.502-8.264,0c0,0-1.525,2.48,7.419,5.372c1.903,0.616,6.114,3.59,2.53,7.446
		c0,0-3.879,4.805-13.574,0.59c0,0,0.252-1.182,1.264-1.604c0,0,6.182,2.963,8.601,0.842c0,0,2.614-3.203-1.434-4.299
		c0,0-8.346-2.277-7.673-7.167c0,0,0.225-3.373,4.553-3.963c0,0,6.155-0.758,7.926,1.35
		C104.563,33.004,105.342,35.116,103.215,34.436z"/>
	<rect x="124.905" y="32.244" fill="#8B395B" width="3.099" height="17.209"/>
	
		<linearGradient id="SVGID_5_" gradientUnits="userSpaceOnUse" x1="327.2178" y1="-279.7651" x2="345.8145" y2="-279.7651" gradientTransform="matrix(1 0 0 -1 -197.6602 -238.96)">
		<stop  offset="0.0049" style="stop-color:#9C344F"/>
		<stop  offset="1" style="stop-color:#5B4D83"/>
	</linearGradient>
	<path fill="url(#SVGID_5_)" d="M139.554,44.301c0,0-7.598,4.859-5.481-1.094c0.808-2.27,4.807-8.351,4.807-8.351
		s2.356,6.673,3.245,8.903c1.006,2.521,2.32,4.84,2.32,4.84h3.71c0,0-2.542-5.121-3.525-7.751c-0.976-2.614-2.882-8.606-2.882-8.606
		s-1.943,0-3.371,0c0,0-5.548,7.541-7.169,10.203c-0.989,1.623-4.89,9.359,4.468,6.152c0,0,5.237-2.617,5.735-3.117
		C141.825,45.068,141.833,43.879,139.554,44.301z"/>
	<path fill="#1B5AAB" d="M154.985,38.399c0,0-1.097-6.392,6.553-4.77c1.945,0.413,3.574,3.956,0.474,6.794
		c-2.139,1.957-9.179,7.082-9.179,7.082l-0.885,1.766h14.758v-1.939h-9.94c0,0,8.694-4.945,9.94-8.68
		c0.55-1.646,0.942-6.169-4.469-6.858c0,0-4.304-0.792-7.339,2.18c-1.105,1.082-1.769,4.847-1.769,4.847
		S154.226,39.58,154.985,38.399z"/>
	<path fill="#0062BE" d="M182.481,35.593c-3.681-5.433-8.243-3.653-8.243-3.653c-5.998,2.13-6.297,9.539-5.441,12.929
		c0.46,1.822,1.871,3.203,1.871,3.203c4.914,4.602,10.126,1.871,11.896-0.672C186.041,42.398,184.136,38.037,182.481,35.593z
		 M180.344,44.934c-1.931,4.092-5.73,3.209-6.757,1.949c-3.159-3.891-1.902-13.271,2.355-13.271
		C181.611,33.612,181.448,42.594,180.344,44.934z"/>
	<polygon fill="#0062BE" points="185.846,35.581 187.931,35.075 187.931,49.432 191.285,49.432 191.285,32.582 188.564,33.747 
		185.846,34.633 	"/>
	<path fill="#0062BE" d="M202.721,40.931c2.475-1.466,2.869-5.432,1.909-6.859c-2.013-2.994-6.506-2.772-8.038-1.204
		c-4.27,4.368,1.213,8.063,1.213,8.063c-7.507,3.778-2.68,8.131-2.68,8.131c3.203,2.709,9.334,1.973,11.212-0.643
		C210.007,43.311,202.721,40.931,202.721,40.931z M196.821,44.498c0.075-0.994,1.039-2.475,2.623-3.006v-1.736
		c0,0-3.762-1.382-1.827-4.945c0.989-1.821,4.531-1.773,5.292,0.982c0.269,0.964,0.181,2.759-1.843,3.963c0,0-0.033,0.426,0,1.736
		c0,0,2.539,0.365,2.753,3.678C204.105,49.662,196.395,50.15,196.821,44.498z"/>
	
		<linearGradient id="SVGID_6_" gradientUnits="userSpaceOnUse" x1="304.7207" y1="-279.5078" x2="319.6924" y2="-279.5078" gradientTransform="matrix(1 0 0 -1 -197.6602 -238.96)">
		<stop  offset="0" style="stop-color:#EC2A39"/>
		<stop  offset="1" style="stop-color:#9C344F"/>
	</linearGradient>
	<path fill="url(#SVGID_6_)" d="M118.948,34.436c0,0-6.85-2.502-8.264,0c0,0-1.525,2.48,7.42,5.372
		c1.902,0.616,6.113,3.59,2.528,7.446c0,0-3.878,4.805-13.572,0.59c0,0,0.252-1.182,1.264-1.604c0,0,6.182,2.963,8.6,0.842
		c0,0,2.613-3.203-1.433-4.299c0,0-8.348-2.277-7.674-7.167c0,0,0.224-3.373,4.554-3.963c0,0,6.154-0.758,7.926,1.35
		C120.297,33.004,121.076,35.116,118.948,34.436z"/>
</g>
</svg>
